<ttFont>
<head>
    <!-- Most of this table will be recalculated by the compiler -->
    <tableVersion value="1.0"/>
    <fontRevision value="1.0"/>
    <checkSumAdjustment value="0xc781d3cf"/>
    <magicNumber value="0x5f0f3cf5"/>
    <flags value="00000000 00000011"/>
    <unitsPerEm value="2048"/>
    <created value="Thu Aug 15 19:00:39 2019"/>
    <modified value="Fri Aug 16 02:19:14 2019"/>
    <xMin value="-599"/>
    <yMin value="-526"/>
    <xMax value="4270"/>
    <yMax value="2105"/>
<macStyle value="00000000 00000000"/>
    <lowestRecPPEM value="3"/>
    <fontDirectionHint value="2"/>
    <indexToLocFormat value="0"/>
    <glyphDataFormat value="0"/>
  </head>
          <CharString index="0">
            -902 vlineto
            -87 -19 -21 return
          </CharString>
          <CharString index="1">
            -137 -21 vhcurveto
            -142 return
          </CharString>
          <CharString index="2">
            rmoveto
            -588 -74 0 -136 return
          </CharString>
          <CharString index="3">
            rmoveto
            80 callsubr
            return
          </CharString>
          <CharString index="4">
            -799 40 callsubr
            return
          </CharString>
          <CharString index="5">
            329 -246 215 -381 -378 -261 -228 -331 return
          </CharString>
          <CharString index="6">
            67 -20 rlineto
            53 -15 10 -19 -62 vvcurveto
            return
          </CharString>
          <CharString index="7">
            448 -330 304 -484 -71 callgsubr
            vhcurveto
            -90 callgsubr
            49 callsubr
            35 callsubr
            endchar
          </CharString>
          <CharString index="8">
            rmoveto
            -8 callsubr
            74 callsubr
            endchar
          </CharString>
          <CharString index="9">
            rmoveto
            180 133 73 109 66 hvcurveto
            63 callsubr
            endchar
          </CharString>
          <CharString index="10">
            -425 vlineto
            -218 135 -128 212 201 132 96 109 51 vhcurveto
            -195 vlineto
            return
          </CharString>
          <CharString index="11">
            rmoveto
            377 262 230 329 return
          </CharString>
          <CharString index="12">
            190 callsubr
            endchar
          </CharString>
          <CharString index="13">
            1550 rmoveto
            406 321 rlineto
            13 return
          </CharString>
          <CharString index="14">
            1187 rmoveto
            428 411 rlineto
            16 return
          </CharString>
          <CharString index="15">
            rmoveto
            -45 callsubr
            1326 vlineto
            -34 callsubr
            endchar
          </CharString>
          <CharString index="16">
            -78 callsubr
            endchar
          </CharString>
          <CharString index="17">
            57 -82 hvcurveto
            -22 hlineto
            -82 -67 -57 -83 -82 67 -58 82 hvcurveto
            return
          </CharString>
          <CharString index="18">
            67 callsubr
            endchar
          </CharString>
          <CharString index="19">
            rmoveto
            -627 vlineto
            -375 277 -213 367 387 244 242 373 3 vhcurveto
            4 598 1 83 17 19 123 21 rlinecurve
            142 -499 -142 vlineto
            137 -21 18 -21 1 -88 4 -551 rcurveline
            7 callgsubr
            endchar
          </CharString>
          <CharString index="20">
            -142 hlineto
            137 -21 19 -21 -87 vvcurveto
            return
          </CharString>
          <CharString index="21">
            67 -20 rlineto
            -73 callsubr
            return
          </CharString>
          <CharString index="22">
            68 callsubr
            endchar
          </CharString>
          <CharString index="23">
            rmoveto
            -14 callsubr
            return
          </CharString>
          <CharString index="24">
            799 142 vlineto
            18 callsubr
            endchar
          </CharString>
          <CharString index="25">
            738 -12 callgsubr
            return
          </CharString>
          <CharString index="26">
            -463 vlineto
            -121 -334 rlineto
            return
          </CharString>
          <CharString index="27">
            rmoveto
            902 -19 callsubr
            return
          </CharString>
          <CharString index="28">
            rmoveto
            -582 -66 callsubr
            -73 callsubr
            -77 callsubr
            535 vlineto
            return
          </CharString>
          <CharString index="29">
            718 142 vlineto
            -108 13 -22 19 74 vvcurveto
            return
          </CharString>
          <CharString index="30">
            682 142 vlineto
            -80 12 -14 16 70 vvcurveto
            return
          </CharString>
          <CharString index="31">
            rmoveto
            739 207 -739 hlineto
            endchar
          </CharString>
          <CharString index="32">
            902 vlineto
            91 19 19 return
          </CharString>
          <CharString index="33">
            137 19 vhcurveto
            142 -784 -142 vlineto
            123 -18 18 -18 -85 vvcurveto
            return
          </CharString>
          <CharString index="34">
            54 -15 10 -19 -62 vvcurveto
            -497 -61 callsubr
            return
          </CharString>
          <CharString index="35">
            -463 vlineto
            -144 -427 rlineto
            return
          </CharString>
          <CharString index="36">
            rmoveto
            325 -800 -83 -107 -131 -162 -91 -114 rlinecurve
            -11 420 vlineto
            166 460 124 308 172 430 55 137 20 16 97 19 rlinecurve
            142 -444 -142 vlineto
            118 -10 6 -27 -44 -123 rrcurveto
            -125 -350 -122 350 -42 124 8 25 120 11 rlinecurve
            142 -717 -142 vlineto
            95 -19 17 -20 56 -137 rrcurveto
            endchar
          </CharString>
          <CharString index="37">
            36 20 56 25 64 hhcurveto
            98 55 -56 -98 hvcurveto
            -442 110 callsubr
            681 41 callsubr
            484 vlineto
            218 -142 127 -221 -207 return
          </CharString>
          <CharString index="38">
            -588 -74 0 -135 67 -20 rlineto
            54 -16 10 -19 -62 vvcurveto
            return
          </CharString>
          <CharString index="39">
            1539 rmoveto
            105 84 73 105 105 -84 74 -105 return
          </CharString>
          <CharString index="40">
            rmoveto
            -105 -84 -74 -105 -105 84 -73 105 return
          </CharString>
          <CharString index="41">
            -74 0 -136 67 -20 rlineto
            return
          </CharString>
          <CharString index="42">
            rmoveto
            82 67 58 82 83 -67 return
          </CharString>
          <CharString index="43">
            rmoveto
            319 -17 callgsubr
            59 callsubr
            298 vlineto
            322 563 66 114 23 23 118 17 rlinecurve
            142 -513 -142 vlineto
            143 -20 callgsubr
            23 callgsubr
            endchar
          </CharString>
          <CharString index="44">
            -52 callsubr
            -113 -94 -77 -112 -110 93 -78 114 hvcurveto
            endchar
          </CharString>
          <CharString index="45">
            142 vlineto
            -143 21 -22 27 97 vvcurveto
            return
          </CharString>
          <CharString index="46">
            vlineto
            -74 -22 -19 -109 -13 vhcurveto
            -142 return
          </CharString>
          <CharString index="47">
            rmoveto
            -449 352 -296 479 return
          </CharString>
          <CharString index="48">
            rmoveto
            220 174 219 -174 return
          </CharString>
          <CharString index="49">
            rmoveto
            151 87 90 145 hvcurveto
            return
          </CharString>
          <CharString index="50">
            -944 -61 callsubr
            return
          </CharString>
          <CharString index="51">
            115 94 82 115 117 -94 80 -115 -115 -95 -80 -117 -115 94 -82 116 hvcurveto
            return
          </CharString>
          <CharString index="52">
            -360 -444 359 -3 callsubr
            -902 45 callsubr
            return
          </CharString>
          <CharString index="53">
            650 1518 rmoveto
            -69 callsubr
            -57 callsubr
            return
          </CharString>
          <CharString index="54">
            rmoveto
            -105 -85 -74 -105 -105 85 -73 105 -11 callgsubr
          </CharString>
          <CharString index="55">
            rmoveto
            115 92 78 110 112 -92 77 -115 return
          </CharString>
          <CharString index="56">
            1585 rmoveto
            715 207 -715 hlineto
            return
          </CharString>
          <CharString index="57">
            1550 rmoveto
            219 145 return
          </CharString>
          <CharString index="58">
            -464 vlineto
            -144 -427 rlineto
            return
          </CharString>
          <CharString index="59">
            535 vlineto
            -70 callsubr
            return
          </CharString>
          <CharString index="60">
            168 0 -225 383 return
          </CharString>
          <CharString index="61">
            -279 171 -104 199 150 149 53 57 66 vhcurveto
            108 callgsubr
            return
          </CharString>
          <CharString index="62">
            -1279 -87 callsubr
            -107 callsubr
            -106 callsubr
            return
          </CharString>
          <CharString index="63">
            rmoveto
            -4 -371 rlineto
            135 hlineto
            61 176 30 28 158 5 rrcurveto
            return
          </CharString>
          <CharString index="64">
            784 142 vlineto
            -123 21 -18 19 81 vvcurveto
            return
          </CharString>
          <CharString index="65">
            -21 hlineto
            -79 -62 -48 -70 -70 62 -49 79 hvcurveto
            return
          </CharString>
          <CharString index="66">
            -563 vlineto
            -294 -31 -113 return
          </CharString>
          <CharString index="67">
            -462 vlineto
            -121 -334 rlineto
            return
          </CharString>
          <CharString index="68">
            vhcurveto
            -142 784 142 vlineto
            return
          </CharString>
          <CharString index="69">
            1596 rmoveto
            230 vlineto
            return
          </CharString>
          <CharString index="70">
            -219 145 -177 0 return
          </CharString>
          <CharString index="71">
            109 -13 22 -19 -74 vvcurveto
            return
          </CharString>
          <CharString index="72">
            rmoveto
            -176 162 -108 171 -21 vhcurveto
            -197 -34 -133 -95 -142 vvcurveto
            -129 127 -85 182 -7 vhcurveto
            -238 -6 -111 -67 -100 vvcurveto
            -138 212 -103 389 406 261 157 237 209 -169 132 -323 vhcurveto
            -217 hlineto
            -82 -44 26 43 33 25 24 35 13 hvcurveto
            -3 40 38 -2 42 hhcurveto
            330 233 108 211 81 -45 83 -58 29 hvcurveto
            235 -25 0 190 -395 -30 rlineto
            35 -80 -121 20 -121 hhcurveto
            -338 -216 -151 -209 hvcurveto
            446 16 rmoveto
            100 44 72 79 76 55 -63 -118 -103 -46 -74 -78 -75 -55 67 119 vhcurveto
            -70 -933 rmoveto
            50 39 37 69 8 vhcurveto
            158 hlineto
            110 50 -31 -58 -69 -83 -48 -140 -132 -71 43 68 hvcurveto
            endchar
          </CharString>
          <CharString index="73">
            9 483 rlineto
            -136 hlineto
            249 callsubr
            132 vlineto
            70 24 -24 -165 29 hvcurveto
            128 541 -128 hlineto
            -162 -29 -23 -27 -71 hhcurveto
            -132 465 hlineto
            183 -6 229 -9 37 -30 60 -223 rlinecurve
            136 hlineto
            return
          </CharString>
          <CharString index="74">
            1187 rmoveto
            237 193 236 -193 180 0 -242 427 -349 0 -241 -427 rlineto
            return
          </CharString>
          <CharString index="75">
            -871 vlineto
            -310 -64 -122 -220 -144 vhcurveto
            53 -120 rlineto
            482 155 return
          </CharString>
          <CharString index="76">
            -221 -126 256 324 332 122 220 225 8 callgsubr
          </CharString>
          <CharString index="77">
            384 103 383 -103 0 137 -340 184 -87 0 -340 -184 rlineto
            return
          </CharString>
          <CharString index="78">
            rmoveto
            114 93 78 110 112 -93 77 -114 97 callsubr
          </CharString>
          <CharString index="79">
            56 -82 hvcurveto
            -22 hlineto
            -82 -67 -56 -83 -82 67 -58 82 hvcurveto
            return
          </CharString>
          <CharString index="80">
            1884 rmoveto
            -218 -145 -37 callsubr
            return
          </CharString>
          <CharString index="81">
            -170 hvcurveto
            165 hlineto
            51 24 24 46 27 31 return
          </CharString>
          <CharString index="82">
            rmoveto
            57 callsubr
            120 callsubr
            endchar
          </CharString>
          <CharString index="83">
            -164 -144 vhcurveto
            71 -113 107 60 rlineto
            return
          </CharString>
          <CharString index="84">
            -151 -87 -91 -145 hvcurveto
            168 hlineto
            43 return
          </CharString>
          <CharString index="85">
            rmoveto
            240 152 120 204 -7 hvcurveto
            return
          </CharString>
          <CharString index="86">
            733 1444 -4 callsubr
            return
          </CharString>
          <CharString index="87">
            rmoveto
            393 87 393 -87 0 116 return
          </CharString>
          <CharString index="88">
            vlineto
            87 19 21 137 21 vhcurveto
            142 return
          </CharString>
          <CharString index="89">
            1184 rmoveto
            240 callsubr
            return
          </CharString>
          <CharString index="90">
            450 hmoveto
            82 66 58 82 83 -66 return
          </CharString>
          <CharString index="91">
            1909 -26 callgsubr
            return
          </CharString>
          <CharString index="92">
            1884 rmoveto
            -219 -145 return
          </CharString>
          <CharString index="93">
            -341 272 -198 335 return
          </CharString>
          <CharString index="94">
            -138 -95 -109 -50 vhcurveto
            return
          </CharString>
          <CharString index="95">
            -129 64 -153 3 hvcurveto
            return
          </CharString>
          <CharString index="96">
            808 -62 callsubr
            return
          </CharString>
          <CharString index="97">
            -25 -31 -35 hvcurveto
            -118 vlineto
            return
          </CharString>
          <CharString index="98">
            rmoveto
            271 -734 325 0 217 588 217 -588 325 0 273 738 51 137 17 17 90 18 rlinecurve
            142 -412 -142 vlineto
            101 -8 9 -28 -41 -124 rrcurveto
            -109 -329 -106 329 -41 125 9 26 98 9 rlinecurve
            142 -677 -142 vlineto
            100 -8 8 -27 -41 -125 rrcurveto
            -109 -328 -107 328 -40 124 9 27 100 9 rlinecurve
            142 -697 -142 vlineto
            86 -18 23 -21 51 -137 rrcurveto
            endchar
          </CharString>
          <CharString index="99">
            -397 1097 -419 0 -401 -1094 -61 -166 -23 -24 -121 -18 rlinecurve
            -142 531 142 vlineto
            -150 23 -21 30 53 156 rrcurveto
            26 76 453 0 26 -76 52 -157 -20 -29 -150 -23 rlinecurve
            -142 return
          </CharString>
          <CharString index="100">
            rmoveto
            246 156 102 173 -7 hvcurveto
            -168 hlineto
            -56 -6 -91 -38 -130 hhcurveto
            -130 -91 39 55 -6 hvcurveto
            -168 hlineto
            -173 -7 156 -102 246 hhcurveto
            return
          </CharString>
          <CharString index="101">
            1494 1444 1444 rmoveto
            -1394 hlineto
            83 callsubr
            154 callsubr
            59 callsubr
            142 callsubr
            return
          </CharString>
          <CharString index="102">
            -18 22 -2 98 callgsubr
            1 84 17 19 123 21 rlinecurve
            142 -496 -142 vlineto
            134 -20 18 -22 1 -89 13 -756 rcurveline
            return
          </CharString>
          <CharString index="103">
            rmoveto
            -688 -142 hlineto
            124 -24 18 -24 -107 vvcurveto
            -4 -881 rlineto
            -84 -18 -19 -123 -21 vhcurveto
            -142 495 142 vlineto
            -133 20 return
          </CharString>
          <CharString index="104">
            vlineto
            82 15 callsubr
            -784 40 callsubr
            return
          </CharString>
          <CharString index="105">
            1196 rmoveto
            44 callgsubr
            547 hmoveto
            44 callgsubr
            return
          </CharString>
          <CharString index="106">
            199 201 43 74 103 vhcurveto
            8 416 rlineto
            -30 callgsubr
            return
          </CharString>
          <CharString index="107">
            1187 rmoveto
            180 hlineto
            -129 427 rlineto
            -483 -16 hlineto
            return
          </CharString>
          <CharString index="108">
            1909 rmoveto
            790 -87 0 111 -790 172 rlineto
            return
          </CharString>
          <CharString index="109">
            28 31 -8 -11 36 vhcurveto
            45 -13 rlineto
            -16 53 56 -14 62 hhcurveto
            return
          </CharString>
          <CharString index="110">
            8 542 rlineto
            -135 hlineto
            -78 -314 -67 -54 -191 -7 return
          </CharString>
          <CharString index="111">
            -17 -2 -23 -24 vvcurveto
            -166 138 -131 243 vhcurveto
            return
          </CharString>
          <CharString index="112">
            218 -334 355 0 217 334 rlineto
            return
          </CharString>
          <CharString index="113">
            0 -136 70 -20 rlineto
            61 -17 12 -17 -62 vvcurveto
            return
          </CharString>
          <CharString index="114">
            1261 rmoveto
            794 231 -794 hlineto
            return
          </CharString>
          <CharString index="115">
            -36 vhcurveto
            -45 13 rlineto
            16 -53 -56 15 -62 hhcurveto
            return
          </CharString>
          <CharString index="116">
            -168 hlineto
            -43 -26 -21 -47 -27 -31 return
          </CharString>
          <CharString index="117">
            450 hmoveto
            82 67 58 82 83 -67 return
          </CharString>
          <CharString index="118">
            178 154 68 139 140 return
          </CharString>
          <CharString index="119">
            -104 vlineto
            2 8 20 2 13 hhcurveto
            68 return
          </CharString>
          <CharString index="120">
            -114 -93 -77 -112 -110 return
          </CharString>
          <CharString index="121">
            69 14 16 80 13 vhcurveto
            142 return
          </CharString>
          <CharString index="122">
            18 19 123 21 vhcurveto
            142 return
          </CharString>
          <CharString index="123">
            1795 83 718 rmoveto
            return
          </CharString>
          <CharString index="124">
            1255 68 513 rmoveto
            return
          </CharString>
          <CharString index="125">
            -137 21 -19 21 87 vvcurveto
            return
          </CharString>
          <CharString index="126">
            921 165 357 rmoveto
            return
          </CharString>
          <CharString index="127">
            271 -80 callsubr
            return
          </CharString>
          <CharString index="128">
            rmoveto
            378 91 vlineto
            335 -641 rlineto
            533 136 hlineto
            -68 29 -26 34 -128 234 rrcurveto
            -303 551 77 77 186 189 55 29 148 23 rlinecurve
            142 -608 -142 vlineto
            125 -16 26 -39 -86 -105 -271 -329 rcurveline
            -86 367 hlineto
            82 16 19 125 -75 callgsubr
            135 -21 21 -21 -87 vvcurveto
            -902 vlineto
            -87 -21 -21 -135 -21 -39 callsubr
            -125 21 -16 19 81 vvcurveto
            endchar
          </CharString>
          <CharString index="129">
            1838 697 263 rmoveto
            385 444 -385 195 callsubr
            return
          </CharString>
          <CharString index="130">
            rmoveto
            345 -1097 407 0 277 884 260 -884 421 0 339 1096 51 166 29 23 119 17 rlinecurve
            142 -523 -99 callgsubr
            -190 -716 -196 701 -44 160 11 26 147 23 rlinecurve
            142 -787 -99 callgsubr
            10 callgsubr
            endchar
          </CharString>
          <CharString index="131">
            rmoveto
            241 -2 -196 161 -438 hhcurveto
            -835 -87 callsubr
            -107 callsubr
            -106 callsubr
            -43 callsubr
            167 callsubr
            endchar
          </CharString>
          <CharString index="132">
            -133 -4 rcurveline
            1012 -6 callgsubr
            -808 40 callsubr
            -902 45 callsubr
            vlineto
            return
          </CharString>
          <CharString index="133">
            1613 rmoveto
            -236 -193 -236 193 -180 0 241 -426 349 0 242 426 rlineto
            return
          </CharString>
          <CharString index="134">
            rmoveto
            196 173 61 100 92 hvcurveto
            169 callsubr
            -340 270 -199 330 vhcurveto
            endchar
          </CharString>
          <CharString index="135">
            1524 619 1071 -105 callsubr
            -101 callsubr
            -97 callsubr
            return
          </CharString>
          <CharString index="136">
            -63 96 callsubr
            698 102 callsubr
            194 callsubr
            endchar
          </CharString>
          <CharString index="137">
            1188 rmoveto
            257 146 154 194 29 63 callgsubr
            return
          </CharString>
          <CharString index="138">
            1539 rmoveto
            105 85 73 105 105 -85 74 -105 108 callsubr
            return
          </CharString>
          <CharString index="139">
            1343 1293 hmoveto
            3 callsubr
            25 callsubr
            return
          </CharString>
          <CharString index="140">
            1184 rmoveto
            123 99 86 123 124 -99 86 -123 return
          </CharString>
          <CharString index="141">
            rmoveto
            242 410 rlineto
            16 -381 vlineto
            -59 -426 rlineto
            endchar
          </CharString>
          <CharString index="142">
            -83 -223 -194 -178 -102 245 335 vhcurveto
            return
          </CharString>
          <CharString index="143">
            218 -334 354 0 218 334 rlineto
            return
          </CharString>
          <CharString index="144">
            219 -145 177 0 -218 334 return
          </CharString>
          <CharString index="145">
            -101 -86 -124 -123 100 -86 123 hvcurveto
            return
          </CharString>
          <CharString index="146">
            1678 742 121 callsubr
            return
          </CharString>
          <CharString index="147">
            -142 vlineto
            137 -21 19 -21 -87 vvcurveto
            return
          </CharString>
          <CharString index="148">
            142 vlineto
            -109 13 -21 19 74 vvcurveto
            return
          </CharString>
          <CharString index="149">
            -87 0 116 -349 156 -89 0 return
          </CharString>
          <CharString index="150">
            -100 -111 -291 hvcurveto
            164 hlineto
            99 return
          </CharString>
          <CharString index="151">
            rmoveto
            78 63 49 70 70 -63 48 -78 hvcurveto
            return
          </CharString>
          <CharString index="152">
            vlineto
            -87 -20 -20 -136 -22 vhcurveto
            -142 return
          </CharString>
          <CharString index="153">
            vlineto
            -97 -22 -27 -143 -21 vhcurveto
            -142 return
          </CharString>
          <CharString index="154">
            -325 0 -224 -383 rlineto
            endchar
          </CharString>
          <CharString index="155">
            -324 0 -225 -383 rlineto
            endchar
          </CharString>
          <CharString index="156">
            177 103 -245 -335 -329 return
          </CharString>
          <CharString index="157">
            vlineto
            -4 -21 -2 -26 -29 vvcurveto
            -194 return
          </CharString>
          <CharString index="158">
            -771 -202 rlineto
            -131 vlineto
            return
          </CharString>
          <CharString index="159">
            -494 rmoveto
            11 callsubr
            return
          </CharString>
          <CharString index="160">
            -355 0 -217 -334 rlineto
            return
          </CharString>
          <CharString index="161">
            236 157 376 vvcurveto
            endchar
          </CharString>
          <CharString index="162">
            rmoveto
            790 161 -790 hlineto
            return
          </CharString>
          <CharString index="163">
            rmoveto
            8 483 rlineto
            -136 hlineto
            return
          </CharString>
          <CharString index="164">
            -189 145 -97 207 return
          </CharString>
          <CharString index="165">
            -137 -96 -109 -50 vhcurveto
            return
          </CharString>
          <CharString index="166">
            817 -62 callsubr
            return
          </CharString>
          <CharString index="167">
            -67 -97 -96 76 -67 94 hvcurveto
            return
          </CharString>
          <CharString index="168">
            -93 -77 60 callsubr
            return
          </CharString>
          <CharString index="169">
            rmoveto
            -118 -164 -42 -27 -137 -20 rrcurveto
            -142 557 142 vlineto
            -137 22 -10 29 92 139 rrcurveto
            132 198 130 -198 91 -139 -9 -29 -136 -22 rlinecurve
            -142 858 142 vlineto
            -113 30 -42 28 -84 127 rrcurveto
            -289 438 227 327 113 165 46 25 137 20 rlinecurve
            142 -552 -142 vlineto
            136 -22 7 -28 -89 -140 rrcurveto
            -125 -195 -129 195 -91 139 9 29 136 22 rlinecurve
            142 -858 -142 vlineto
            113 -30 42 -28 84 -127 288 -436 rcurveline
            endchar
          </CharString>
          <CharString index="170">
            -106 34 133 -70 146 hhcurveto
            109 89 29 39 53 hvcurveto
            136 vlineto
            -3 -11 -14 -1 -17 hhcurveto
            -50 -41 32 77 hvcurveto
            375 vlineto
            291 -201 122 -344 -339 -199 -135 -156 -100 77 -64 116 117 81 79 101 33 -10 31 -17 26 vhcurveto
            2 19 19 2 20 hhcurveto
            136 75 -65 -154 hvcurveto
            -44 vlineto
            -215 -45 rlineto
            -352 -73 -108 -126 -152 vvcurveto
            -149 115 -114 200 vhcurveto
            125 335 rmoveto
            79 53 51 140 31 vhcurveto
            42 9 rlineto
            -225 vlineto
            -32 -19 -45 -25 -56 hhcurveto
            -62 -53 39 73 hvcurveto
            return
          </CharString>
          <CharString index="171">
            rmoveto
            -736 -142 hlineto
            123 -18 20 -29 -2 -108 rrcurveto
            -17 -881 -2 -87 -17 -18 -122 -19 rlinecurve
            -142 490 142 vlineto
            -123 19 -17 18 -1 87 rrcurveto
            -7 881 349 -1147 290 0 124 454 199 694 17 -885 2 -85 -20 -18 -123 -18 rlinecurve
            -142 774 142 vlineto
            -138 19 -17 19 -2 91 rrcurveto
            -17 902 -2 91 21 19 138 19 rlinecurve
            142 vlineto
            -740 4 -210 -820 rlineto
            endchar
          </CharString>
          <CharString index="172">
            261 -123 230 -188 124 vhcurveto
            -7 39 43 -4 44 hhcurveto
            171 118 72 140 2 hvcurveto
            1 121 -102 117 -126 61 rrcurveto
            -140 hlineto
            25 -31 17 -65 -1 -57 rrcurveto
            -127 -1 -67 -109 -149 -109 -121 26 -147 -27 callgsubr
            49 callsubr
            35 callsubr
            endchar
          </CharString>
          <CharString index="173">
            rmoveto
            293 -238 156 -432 vhcurveto
            -829 -87 callsubr
            -107 callsubr
            -106 callsubr
            -11 callsubr
            233 186 vlineto
            410 260 182 293 hvcurveto
            -509 -19 rmoveto
            -176 -102 -109 -186 -6 vhcurveto
            -59 -3 0 599 59 -2 rlineto
            203 -8 85 -118 -177 vvcurveto
            endchar
          </CharString>
          <CharString index="174">
            203 178 57 104 97 vhcurveto
            141 vlineto
            -38 -53 -92 -22 -78 hhcurveto
            -204 -136 98 176 -46 -59 callgsubr
            -351 -250 -217 -347 vhcurveto
            602 382 rmoveto
            83 43 -84 -134 hvcurveto
            -11 -1 -9 -8 vvcurveto
            -268 hlineto
            154 4 50 92 89 hhcurveto
            return
          </CharString>
          <CharString index="175">
            581 64 0 135 -66 20 rlineto
            -54 16 -10 18 62 vvcurveto
            772 vlineto
            -588 -74 0 -136 -101 callsubr
            -468 vlineto
            -35 -19 -51 -26 -58 hhcurveto
            -88 -50 56 99 hvcurveto
            return
          </CharString>
          <CharString index="176">
            176 -67 149 -144 89 hvcurveto
            -14 50 58 -8 53 hhcurveto
            162 110 72 132 2 hvcurveto
            2 122 -98 121 -123 59 rrcurveto
            -140 hlineto
            212 callsubr
            endchar
          </CharString>
          <CharString index="177">
            388 vlineto
            36 43 106 24 108 hhcurveto
            73 76 -12 -17 41 hvcurveto
            17 35 13 65 62 vvcurveto
            127 -56 102 -118 -126 -98 -97 -238 -85 vhcurveto
            return
          </CharString>
          <CharString index="178">
            1458 68 511 -88 callgsubr
            171 callsubr
            return
          </CharString>
          <CharString index="179">
            rlineto
            -104 vlineto
            2 8 19 2 14 hhcurveto
            67 39 -22 -41 -41 -41 -21 -61 -53 -49 13 16 -31 hvcurveto
            -137 vlineto
            -25 59 85 -16 return
          </CharString>
          <CharString index="180">
            1554 rmoveto
            143 callsubr
            404 hmoveto
            -106 callgsubr
            return
          </CharString>
          <CharString index="181">
            831 142 vlineto
            -123 18 -26 24 -60 163 rrcurveto
            -923 252 rmoveto
            169 495 166 -495 rlineto
            return
          </CharString>
          <CharString index="182">
            461 vlineto
            274 -8 0 190 -274 -8 rlineto
            273 -129 vlineto
            -447 -321 rlineto
            -134 127 vlineto
            return
          </CharString>
          <CharString index="183">
            1613 rmoveto
            -237 -193 -236 193 -180 0 242 -426 349 0 241 426 rlineto
            return
          </CharString>
          <CharString index="184">
            1187 rmoveto
            236 193 236 -193 180 0 -241 427 -349 0 -242 -427 rlineto
            return
          </CharString>
          <CharString index="185">
            395 92 callgsubr
            -128 -106 -90 -130 -129 105 -91 129 hvcurveto
            return
          </CharString>
          <CharString index="186">
            -106 callsubr
            799 142 vlineto
            return
          </CharString>
          <CharString index="187">
            -448 330 -304 484 492 323 326 434 return
          </CharString>
          <CharString index="188">
            41 -22 -44 -38 -29 -39 -109 -64 hvcurveto
            146 hlineto
            190 65 return
          </CharString>
          <CharString index="189">
            hmoveto
            79 62 49 70 70 -62 48 -79 hvcurveto
            -21 -4 callgsubr
            return
          </CharString>
          <CharString index="190">
            -8 -431 rlineto
            136 hlineto
            49 229 40 32 201 6 return
          </CharString>
          <CharString index="191">
            137 callsubr
            -161 -1 hlineto
            -82 -87 -55 -127 return
          </CharString>
          <CharString index="192">
            -13 -24 36 hvcurveto
            31 -21 rlineto
            -42 64 54 -19 66 hhcurveto
            endchar
          </CharString>
          <CharString index="193">
            rmoveto
            -106 -84 -74 -105 -105 84 -73 106 -11 callgsubr
          </CharString>
          <CharString index="194">
            1884 rmoveto
            -389 -13 hlineto
            326 -321 rlineto
            return
          </CharString>
          <CharString index="195">
            -8 -13 35 vhcurveto
            44 -15 rlineto
            -19 52 55 -16 60 hhcurveto
            return
          </CharString>
          <CharString index="196">
            784 142 vlineto
            -124 20 -17 20 81 vvcurveto
            return
          </CharString>
          <CharString index="197">
            557 vlineto
            72 21 19 109 14 vhcurveto
            142 return
          </CharString>
          <CharString index="198">
            342 194 133 167 320 vvcurveto
            endchar
          </CharString>
          <CharString index="199">
            -30 -40 -39 -42 -30 -105 -20 hvcurveto
            123 -78 rlineto
            return
          </CharString>
          <CharString index="200">
            rmoveto
            195 vlineto
            -790 -171 rlineto
            -111 vlineto
            return
          </CharString>
          <CharString index="201">
            1532 rmoveto
            136 98 104 274 hvcurveto
            return
          </CharString>
          <CharString index="202">
            -348 156 -90 0 -348 -156 rlineto
            return
          </CharString>
          <CharString index="203">
            -277 -51 -26 -238 -9 rrcurveto
            -214 -8 return
          </CharString>
          <CharString index="204">
            13 callsubr
            92 -78 115 hvcurveto
            endchar
          </CharString>
          <CharString index="205">
            103 384 -103 0 137 -340 184 return
          </CharString>
          <CharString index="206">
            1 17 41 47 hhcurveto
            30 25 -14 -26 39 hvcurveto
            return
          </CharString>
          <CharString index="207">
            -100 -86 -124 -123 99 -86 123 hvcurveto
            return
          </CharString>
          <CharString index="208">
            -48 callgsubr
            52 12 51 hhcurveto
            73 return
          </CharString>
          <CharString index="209">
            1145 rlineto
            136 -1234 vlineto
            return
          </CharString>
          <CharString index="210">
            105 85 73 105 105 -84 74 -106 hvcurveto
            endchar
          </CharString>
          <CharString index="211">
            87 20 21 137 -75 callgsubr
            return
          </CharString>
          <CharString index="212">
            hlineto
            97 22 27 143 21 vhcurveto
            142 return
          </CharString>
          <CharString index="213">
            22 7 32 6 33 -1 rrcurveto
            55 -2 return
          </CharString>
          <CharString index="214">
            -74 -21 -19 -109 -13 vhcurveto
            -142 return
          </CharString>
          <CharString index="215">
            -104 -85 -74 -105 -105 84 -73 105 hvcurveto
            return
          </CharString>
          <CharString index="216">
            -105 -85 -74 -105 -105 84 -73 106 hvcurveto
            return
          </CharString>
          <CharString index="217">
            vlineto
            -70 -14 -16 -79 -12 vhcurveto
            -142 return
          </CharString>
          <CharString index="218">
            -1213 -96 callsubr
            return
          </CharString>
          <CharString index="219">
            -142 vlineto
            241 callsubr
            return
          </CharString>
          <CharString index="220">
            695 -26 -96 callsubr
            return
          </CharString>
          <CharString index="221">
            1644 181 1181 rmoveto
            -627 vlineto
            -375 277 -213 367 387 244 242 373 3 vhcurveto
            4 598 1 83 17 19 123 21 rlinecurve
            142 -499 -142 vlineto
            137 -21 18 -21 1 -88 4 -551 rcurveline
            7 callgsubr
            return
          </CharString>
          <CharString index="222">
            rmoveto
            -226 276 183 223 72 89 41 26 98 12 rlinecurve
            142 -470 -143 vlineto
            96 -16 3 -23 -71 -90 rrcurveto
            -66 -82 -68 83 -72 87 4 25 97 17 rlinecurve
            142 -685 -142 vlineto
            60 -16 32 -20 87 -106 rrcurveto
            226 -275 -174 -200 -90 -103 -38 -28 -114 -20 rlinecurve
            -142 492 142 vlineto
            -87 16 -10 25 71 89 rrcurveto
            65 81 68 -82 69 -85 -8 -26 -91 -18 rlinecurve
            -142 686 142 vlineto
            -62 18 -34 23 -84 101 rrcurveto
            endchar
          </CharString>
          <CharString index="223">
            rmoveto
            -124 -112 -46 -55 -63 hvcurveto
            -135 vlineto
            3 7 17 1 14 hhcurveto
            61 20 -34 -103 hvcurveto
            -86 -4 -107 -96 vvcurveto
            -281 182 -160 318 337 214 235 393 310 -111 165 -179 -155 -88 -147 -188 39 vhcurveto
            158 -16 113 -129 -157 vvcurveto
            -139 -81 -87 -106 -114 -64 88 159 vhcurveto
            76 5 140 90 vvcurveto
            198 -98 108 -186 vhcurveto
            endchar
          </CharString>
          <CharString index="224">
            332 -174 205 -247 -164 -122 -82 -116 -52 vhcurveto
            7 636 103 callgsubr
            -1192 256 vlineto
            122 143 rlineto
            -89 62 124 -79 157 hhcurveto
            269 219 204 362 hvcurveto
            -466 -32 rmoveto
            -222 -68 -111 -103 -55 -44 24 32 -16 vhcurveto
            540 vlineto
            36 17 44 29 53 hhcurveto
            102 70 -111 -217 hvcurveto
            return
          </CharString>
          <CharString index="225">
            1675 838 -32 rmoveto
            414 340 340 415 415 -340 340 -414 -415 -340 -340 -415 -415 340 -340 415 hvcurveto
            108 vmoveto
            -349 -286 292 355 355 286 292 349 348 286 -292 -355 -355 -286 -292 -348 hvcurveto
            return
          </CharString>
          <CharString index="226">
            rmoveto
            372 313 152 333 224 -130 154 -293 86 hvcurveto
            -137 41 rlineto
            -135 40 -64 51 84 vvcurveto
            91 70 66 140 179 119 -105 -193 43 vhcurveto
            136 hlineto
            -9 381 rlineto
            220 callsubr
            -64 110 217 -50 219 hhcurveto
            return
          </CharString>
          <CharString index="227">
            18 callgsubr
            -57 110 165 -37 179 hhcurveto
            366 205 145 226 178 -104 104 -241 55 hvcurveto
            -113 25 rlineto
            -100 23 -43 28 50 vvcurveto
            56 53 30 98 139 80 -66 -90 39 vhcurveto
            136 hlineto
            -5 266 rlineto
            87 callgsubr
            return
          </CharString>
          <CharString index="228">
            rmoveto
            455 -337 247 -524 vhcurveto
            -763 -87 callsubr
            -107 callsubr
            -106 callsubr
            799 -8 callgsubr
            -536 -23 180 callsubr
            return
          </CharString>
          <CharString index="229">
            rmoveto
            211 -163 131 -258 21 vhcurveto
            194 16 167 100 176 vvcurveto
            223 -218 130 -401 vhcurveto
            -834 -87 callsubr
            -107 callsubr
            -106 callsubr
            214 callsubr
            endchar
          </CharString>
          <CharString index="230">
            rmoveto
            16 -700 rlineto
            -262 7 132 -116 228 hhcurveto
            162 141 66 88 68 hvcurveto
            135 vlineto
            -20 -39 -48 -9 -50 hhcurveto
            -113 -70 59 139 6 hvcurveto
            29 620 rlineto
            endchar
          </CharString>
          <CharString index="231">
            1400 rmoveto
            -144 150 -96 208 208 150 96 144 145 -150 96 -208 -208 -150 -96 -145 vhcurveto
            262 hmoveto
            64 43 43 53 return
          </CharString>
          <CharString index="232">
            rmoveto
            240 54 206 163 244 vvcurveto
            171 -102 114 -152 -161 -98 -128 -161 vhcurveto
            110 -3 75 -59 -96 vvcurveto
            -87 -72 -57 -86 -21 vhcurveto
            endchar
          </CharString>
          <CharString index="233">
            1200 rmoveto
            139 101 110 291 hvcurveto
            -164 hlineto
            -99 -1 -17 -41 -48 hhcurveto
            -29 -25 14 27 -39 hvcurveto
            -34 23 rlineto
            47 -68 -58 22 -72 hhcurveto
            -139 return
          </CharString>
          <CharString index="234">
            1200 rmoveto
            139 100 110 291 hvcurveto
            -164 hlineto
            -99 -18 -41 -47 -30 -25 14 27 -39 vhcurveto
            -33 23 rlineto
            47 -69 -58 22 -71 hhcurveto
            return
          </CharString>
          <CharString index="235">
            -163 hlineto
            -67 -7 -88 -44 -127 hhcurveto
            -127 -88 45 66 -7 hvcurveto
            -163 hlineto
            -204 -7 152 -120 240 hhcurveto
            endchar
          </CharString>
          <CharString index="236">
            1554 rmoveto
            95 75 67 96 97 -75 67 -95 -94 -76 -67 -97 -96 75 -67 95 hvcurveto
            -107 callgsubr
            return
          </CharString>
          <CharString index="237">
            -35 vhcurveto
            -45 13 rlineto
            16 -54 -55 15 -62 hhcurveto
            -23 callsubr
            25 22 47 2 callsubr
            return
          </CharString>
          <CharString index="238">
            1891 rmoveto
            790 -87 0 111 -790 171 rlineto
            2 -589 rmoveto
            393 87 return
          </CharString>
          <CharString index="239">
            rmoveto
            190 132 -10 callgsubr
            -101 -82 -10 callsubr
            106 callsubr
            return
          </CharString>
          <CharString index="240">
            42 -16 -35 vvcurveto
            -34 -39 -21 -70 -54 -59 15 17 -31 vhcurveto
            -122 vlineto
            -26 48 82 -20 return
          </CharString>
          <CharString index="241">
            1550 rmoveto
            218 145 219 -145 177 0 -32 callgsubr
            return
          </CharString>
          <CharString index="242">
            -54 19 -67 hhcurveto
            -129 -94 -99 -262 hvcurveto
            153 hlineto
            89 1 16 37 44 hhcurveto
            return
          </CharString>
          <CharString index="243">
            564 1444 rmoveto
            -135 hlineto
            -327 -148 0 34 callgsubr
            return
          </CharString>
          <CharString index="244">
            1561 rmoveto
            243 138 131 166 24 -2 23 -4 17 hvcurveto
            return
          </CharString>
          <CharString index="245">
            rmoveto
            331 -173 205 -248 -164 -122 -82 -117 -51 vhcurveto
            return
          </CharString>
          <CharString index="246">
            hlineto
            329 427 rmoveto
            -351 -16 hlineto
            183 -411 rlineto
            190 hlineto
            return
          </CharString>
          <CharString index="247">
            1883 55 callsubr
            202 -496 44 callsubr
            return
          </CharString>
          <CharString index="248">
            1187 rmoveto
            242 411 rlineto
            16 -381 vlineto
            -59 -427 rlineto
            return
          </CharString>
          <CharString index="249">
            994 vlineto
            36 -1 201 -6 40 -32 49 -229 rlinecurve
            136 hlineto
            return
          </CharString>
          <CharString index="250">
            94 76 67 96 97 -76 67 -94 -94 -77 -67 -97 -96 76 -67 95 hvcurveto
            return
          </CharString>
          <CharString index="251">
            1187 rmoveto
            179 hlineto
            -129 427 rlineto
            -482 -16 hlineto
            return
          </CharString>
          <CharString index="252">
            219 -145 176 0 -217 334 53 callsubr
            return
          </CharString>
          <CharString index="253">
            0 385 -38 callsubr
            -770 -202 rlineto
            -131 vlineto
            return
          </CharString>
          <CharString index="254">
            -54 -59 15 17 -31 vhcurveto
            -122 vlineto
            -26 48 82 -20 99 hhcurveto
            endchar
          </CharString>
          <CharString index="255">
            rmoveto
            384 98 callsubr
            -88 0 -340 -184 rlineto
            endchar
          </CharString>
          <CharString index="256">
            1550 rmoveto
            178 hlineto
            -105 334 rlineto
            -482 -13 hlineto
            return
          </CharString>
          <CharString index="257">
            1550 rmoveto
            178 hlineto
            -106 334 rlineto
            -481 -13 hlineto
            return
          </CharString>
          <CharString index="258">
            -582 rmoveto
            290 hlineto
            966 1444 rlineto
            -289 hlineto
            return
          </CharString>
          <CharString index="259">
            -136 hlineto
            8 -373 rlineto
            -64 104 192 -53 179 hhcurveto
            return
          </CharString>
          <CharString index="260">
            108 87 73 104 105 -87 73 -108 -107 -87 -73 -105 -104 return
          </CharString>
          <CharString index="261">
            36 1 rcurveline
            -994 vlineto
            -97 -22 -27 -144 -21 vhcurveto
            -142 return
          </CharString>
          <CharString index="262">
            18 2 23 24 vvcurveto
            165 -138 131 -243 vhcurveto
            return
          </CharString>
          <CharString index="263">
            1845 rmoveto
            78 63 48 70 70 -63 49 -78 hvcurveto
            return
          </CharString>
          <CharString index="264">
            1614 rmoveto
            -391 -16 hlineto
            347 -411 rlineto
            return
          </CharString>
          <CharString index="265">
            -1009 -384 1009 vlineto
            81 15 callsubr
            return
          </CharString>
          <CharString index="266">
            -682 112 callsubr
            -77 callsubr
            endchar
          </CharString>
          <CharString index="267">
            -153 hlineto
            -89 -16 -37 -44 -28 -23 13 24 -36 vhcurveto
            return
          </CharString>
          <CharString index="268">
            124 rmoveto
            -69 -45 85 229 230 38 90 67 return
          </CharString>
          <CharString index="269">
            33 92 68 108 vvcurveto
            108 -106 72 -160 vhcurveto
            return
          </CharString>
          <CharString index="270">
            rmoveto
            184 163 86 184 47 hvcurveto
            -161 88 185 -109 195 hhcurveto
            201 173 58 103 96 hvcurveto
            141 vlineto
            -38 -53 -91 -22 -78 hhcurveto
            -196 -131 98 177 -44 hvcurveto
            618 hlineto
            5 23 3 44 46 vvcurveto
            290 -196 183 -300 -126 -118 -40 -57 -65 vhcurveto
            60 -60 -118 37 -186 hhcurveto
            -274 -213 -116 -158 -96 74 -70 110 123 91 78 98 29 -8 27 -14 24 hvcurveto
            1 13 14 1 14 hhcurveto
            141 74 -65 -158 hvcurveto
            -39 vlineto
            -226 -40 rlineto
            -308 -55 -140 -111 -176 vvcurveto
            -181 143 -96 190 vhcurveto
            858 921 rmoveto
            77 39 -83 -134 hvcurveto
            -11 0 -9 -8 vvcurveto
            -251 hlineto
            154 3 48 91 84 hhcurveto
            -655 -698 rmoveto
            -59 -41 40 70 91 71 54 140 24 hvcurveto
            27 4 rlineto
            -104 vlineto
            -129 -60 -50 -78 vhcurveto
            endchar
          </CharString>
          <CharString index="271">
            rmoveto
            -1217 hlineto
            -496 -1068 -89 -193 -50 -27 -107 -14 rlinecurve
            -142 533 142 vlineto
            -131 21 -18 47 71 166 rrcurveto
            65 149 416 0 4 -262 rlineto
            -85 -18 -18 -123 -18 vhcurveto
            -142 1199 vlineto
            9 483 rlineto
            -135 hlineto
            -63 -273 -39 -26 -217 -12 rrcurveto
            -163 -9 -6 490 rlineto
            88 hlineto
            69 23 -24 -165 31 hvcurveto
            129 hlineto
            -8 541 rlineto
            -128 hlineto
            -162 -26 -22 -27 -71 hhcurveto
            -88 hlineto
            -6 465 128 -6 231 -13 35 -25 63 -222 rlinecurve
            136 hlineto
            -1120 266 rmoveto
            77 hlineto
            9 -584 rlineto
            -340 hlineto
            endchar
          </CharString>
          <CharString index="272">
            1651 697 263 rmoveto
            378 91 vlineto
            335 -641 rlineto
            533 136 hlineto
            -68 29 -26 34 -128 234 rrcurveto
            -303 551 77 77 186 189 55 29 148 23 rlinecurve
            142 -608 -142 vlineto
            125 -16 26 -39 -86 -105 -271 -329 rcurveline
            -86 367 hlineto
            82 16 19 125 -75 callgsubr
            135 -21 21 -21 -87 vvcurveto
            -902 vlineto
            -87 -21 -21 -135 -21 -39 callsubr
            -125 21 -16 19 81 vvcurveto
            return
          </CharString>
          <CharString index="273">
            518 136 hlineto
            -61 24 -36 37 -113 225 rrcurveto
            -170 341 131 101 63 26 133 20 rlinecurve
            142 -596 -142 vlineto
            156 -20 1 -40 -126 -113 -133 -122 rcurveline
            -84 903 hlineto
            -69 callsubr
            -57 callsubr
            -77 callsubr
            213 89 vlineto
            return
          </CharString>
          <CharString index="274">
            324 118 vlineto
            268 -587 rlineto
            510 136 hlineto
            -55 18 -37 36 -88 182 rrcurveto
            -156 320 178 61 92 123 -2 166 rlinecurve
            -487 -26 rmoveto
            -168 -124 -91 -150 -5 vhcurveto
            -67 -2 0 531 65 -2 rlineto
            175 -6 101 -97 -160 vvcurveto
            return
          </CharString>
          <CharString index="275">
            123 83 116 51 vhcurveto
            -189 vlineto
            580 64 0 135 -66 20 rlineto
            -54 16 -10 18 62 vvcurveto
            1217 vlineto
            -588 -72 0 -135 67 -20 rlineto
            53 -16 10 -19 -62 vvcurveto
            -220 vlineto
            61 -51 -118 44 -111 hhcurveto
            -261 -210 -203 -363 hvcurveto
            return
          </CharString>
          <CharString index="276">
            141 vlineto
            -41 -53 -100 -19 -82 hhcurveto
            -197 -163 127 246 188 97 118 144 16 16 -2 -2 14 hvcurveto
            -46 -35 -29 -56 -64 vvcurveto
            -107 85 -79 110 107 91 77 129 179 -158 142 -292 -337 -284 -208 -356 return
          </CharString>
          <CharString index="277">
            141 vlineto
            -38 -53 -92 -22 -78 hhcurveto
            -204 -136 98 176 -46 -59 callgsubr
            -351 -250 -217 -347 vhcurveto
            602 382 rmoveto
            83 43 -84 -134 hvcurveto
            -11 -1 -9 -8 vvcurveto
            -268 hlineto
            154 4 50 92 89 hhcurveto
            endchar
          </CharString>
          <CharString index="278">
            168 callsubr
            466 32 rmoveto
            223 69 46 callgsubr
            return
          </CharString>
          <CharString index="279">
            1615 1525 1042 rmoveto
            241 -2 -196 161 -438 hhcurveto
            -835 -87 callsubr
            -107 callsubr
            -106 callsubr
            -43 callsubr
            167 callsubr
            return
          </CharString>
          <CharString index="280">
            -1020 -739 61 callgsubr
            1359 -725 rmoveto
            257 168 -13 callgsubr
            -242 -258 -168 -186 -255 -255 167 -187 243 hvcurveto
            return
          </CharString>
          <CharString index="281">
            -164 hlineto
            -50 -25 -25 -45 -27 -31 9 12 -35 vhcurveto
            -44 16 -74 callgsubr
            -85 -107 -31 callgsubr
            88 callsubr
            endchar
          </CharString>
          <CharString index="282">
            100 3 -489 -766 rlineto
            -127 1009 vlineto
            5 387 rlineto
            -137 hlineto
            -49 -187 -44 -35 -149 -5 rrcurveto
            -120 -4 491 769 rlineto
            127 vlineto
            return
          </CharString>
          <CharString index="283">
            vlineto
            -114 -120 rlineto
            -104 vlineto
            2 9 19 2 13 hhcurveto
            68 39 -22 -41 -41 -41 -21 -61 -53 -50 13 16 -30 hvcurveto
            -137 vlineto
            -25 59 85 -16 97 hhcurveto
            endchar
          </CharString>
          <CharString index="284">
            15 56 hhcurveto
            81 -84 callgsubr
            171 -49 callgsubr
            return
          </CharString>
          <CharString index="285">
            1532 rmoveto
            137 97 104 274 hvcurveto
            -163 hlineto
            -92 -1 -16 -38 -45 hhcurveto
            -29 -23 13 25 -38 hvcurveto
            -32 21 rlineto
            44 -68 -56 20 return
          </CharString>
          <CharString index="286">
            258 141 115 194 -116 508 -270 hlineto
            -388 -528 rlineto
            -174 401 vlineto
            -1 194 rmoveto
            -228 hlineto
            return
          </CharString>
          <CharString index="287">
            rmoveto
            1 -340 -152 -206 -226 -8 rrcurveto
            -68 -2 0 1118 68 -2 rlineto
            232 -9 145 -216 -335 vvcurveto
            return
          </CharString>
          <CharString index="288">
            hmoveto
            256 169 -13 callgsubr
            -243 -258 -167 -186 -255 -255 166 -187 244 hvcurveto
            return
          </CharString>
          <CharString index="289">
            1922 rmoveto
            -243 -138 -131 -165 -24 2 -24 4 -17 hvcurveto
            161 1 hlineto
            82 87 55 127 return
          </CharString>
          <CharString index="290">
            -37 vhcurveto
            -33 112 callgsubr
            164 hlineto
            92 17 38 45 29 23 -13 -25 37 vhcurveto
            -77 callgsubr
            return
          </CharString>
          <CharString index="291">
            4 323 rlineto
            267 156 -266 hlineto
            2 166 -457 -58 rlineto
            -108 -131 vlineto
            endchar
          </CharString>
          <CharString index="292">
            1622 rmoveto
            -151 -112 -57 -55 -62 hvcurveto
            -119 vlineto
            19 33 58 15 56 hhcurveto
            82 return
          </CharString>
          <CharString index="293">
            38 -22 -41 -41 -40 -21 -61 -54 -49 13 16 -31 hvcurveto
            -137 vlineto
            -25 59 86 -16 97 hhcurveto
            return
          </CharString>
          <CharString index="294">
            39 -26 -34 -33 -41 -27 -103 -16 hvcurveto
            120 -67 rlineto
            162 29 90 58 92 vvcurveto
            91 return
          </CharString>
          <CharString index="295">
            -17 hvcurveto
            162 1 hlineto
            82 86 55 127 -89 callgsubr
            155 callsubr
            return
          </CharString>
          <CharString index="296">
            1614 rmoveto
            -392 -16 hlineto
            347 -411 rlineto
            205 139 callsubr
            return
          </CharString>
          <CharString index="297">
            -327 246 -217 381 hvcurveto
            12 183 rmoveto
            -103 -66 54 callgsubr
            return
          </CharString>
          <CharString index="298">
            993 vlineto
            165 -5 209 -7 44 -31 57 -215 rlinecurve
            136 hlineto
            endchar
          </CharString>
          <CharString index="299">
            62 1196 rmoveto
            131 -948 hlineto
            -74 -22 -19 -109 -13 vhcurveto
            -142 return
          </CharString>
          <CharString index="300">
            1 hlineto
            95 92 65 141 137 96 -66 -94 vhcurveto
            -1 78 callgsubr
            return
          </CharString>
          <CharString index="301">
            -8 -431 rlineto
            135 hlineto
            58 215 45 37 218 -37 callgsubr
            return
          </CharString>
          <CharString index="302">
            vlineto
            -85 -18 -18 -123 -18 -39 callsubr
            -137 19 -19 19 91 vvcurveto
            return
          </CharString>
          <CharString index="303">
            rmoveto
            374 259 229 329 142 -46 121 -83 92 hvcurveto
            100 95 -108 114 -115 -111 rlineto
            58 -100 -124 31 -144 hhcurveto
            -374 -260 -227 -330 -144 48 -123 86 -92 hvcurveto
            -93 -88 108 -114 109 105 rlineto
            -56 99 123 -31 141 hhcurveto
            -163 560 rmoveto
            231 57 131 106 63 49 -49 -89 30 vhcurveto
            -303 -289 rlineto
            -1 21 -1 21 23 vvcurveto
            176 -381 rmoveto
            -62 -48 47 85 -30 hvcurveto
            301 287 rlineto
            1 -18 0 -19 -20 vvcurveto
            -232 -57 -130 -105 vhcurveto
            endchar
          </CharString>
          <CharString index="304">
            -206 70 -176 122 -129 vhcurveto
            -129 -131 117 -116 139 141 rlineto
            -86 133 169 -49 193 hhcurveto
            492 323 326 434 207 -70 175 -123 130 hvcurveto
            129 130 -117 116 -139 -141 rlineto
            86 -133 -168 49 -193 -27 callgsubr
            103 78 -83 -135 47 vhcurveto
            -496 -504 rlineto
            -6 53 -3 57 60 vvcurveto
            557 -28 rmoveto
            -329 -83 -223 -194 -103 -78 83 136 -48 vhcurveto
            496 504 rlineto
            7 -54 3 -57 -60 vvcurveto
            endchar
          </CharString>
          <CharString index="305">
            rmoveto
            184 113 108 178 82 hvcurveto
            -193 49 90 -89 148 hhcurveto
            105 104 54 89 68 hvcurveto
            135 vlineto
            -12 -15 -25 -11 -27 hhcurveto
            -67 -60 51 236 -57 hvcurveto
            2 vlineto
            228 528 rlineto
            -405 hlineto
            -15 -71 -18 -75 -20 -75 rrcurveto
            161 -75 -116 87 -208 hhcurveto
            -279 -193 -224 -338 -355 178 -186 231 hvcurveto
            54 573 rmoveto
            209 51 110 77 73 41 -79 -193 29 vhcurveto
            20 -140 rlineto
            -158 -59 -51 -51 -61 hhcurveto
            -78 -42 111 191 hvcurveto
            endchar
          </CharString>
          <CharString index="306">
            rmoveto
            -310 196 -161 233 186 127 100 172 84 vhcurveto
            -153 59 118 -119 210 hhcurveto
            292 1 188 250 341 vvcurveto
            323 -120 188 -186 -175 -94 -180 -184 80 vhcurveto
            158 -26 96 -127 -132 vvcurveto
            -105 -63 -64 -89 -122 -77 113 239 vhcurveto
            205 -369 -214 vlineto
            -250 -61 -93 -87 -82 -41 85 150 182 60 176 120 126 vhcurveto
            -91 100 rlineto
            -336 -83 -214 -241 -309 vvcurveto
            endchar
          </CharString>
          <CharString index="307">
            rmoveto
            262 198 93 141 112 hvcurveto
            142 vlineto
            -57 -79 -137 -40 -147 hhcurveto
            -144 -77 34 63 71 85 34 158 hvcurveto
            65 hlineto
            -52 244 rlineto
            -51 hlineto
            -160 -61 37 58 62 70 39 139 47 41 -4 -7 36 hvcurveto
            -18 -26 -10 -31 -34 vvcurveto
            -83 57 -65 104 92 66 73 88 133 -142 138 -359 -364 -194 -132 -186 -176 163 -85 244 vhcurveto
            -255 -6 -182 -77 -164 vvcurveto
            -180 206 -97 287 vhcurveto
            endchar
          </CharString>
          <CharString index="308">
            366 363 267 234 381 2 vhcurveto
            4 764 rlineto
            -1 13 12 0 12 hhcurveto
            180 126 74 136 124 -97 104 -120 59 hvcurveto
            -140 hlineto
            25 -31 17 -64 -1 -59 rrcurveto
            -122 -2 -77 -121 -192 hhcurveto
            -125 -142 hlineto
            149 -26 18 -16 -85 vvcurveto
            4 -581 rlineto
            -236 -105 -109 -179 -184 -127 116 213 vhcurveto
            597 vlineto
            85 19 16 149 26 vhcurveto
            142 -806 -142 vlineto
            131 -23 21 -19 -85 vvcurveto
            return
          </CharString>
          <CharString index="309">
            rmoveto
            -114 98 -82 124 173 129 108 278 160 vhcurveto
            460 801 62 109 22 23 120 17 rlinecurve
            142 -515 -142 vlineto
            152 -18 8 -23 -58 -113 rrcurveto
            -216 -423 -220 423 -58 111 8 25 153 18 rlinecurve
            142 -836 -142 vlineto
            120 -17 21 -25 62 -107 rrcurveto
            501 -865 -30 -50 -31 -37 -33 -25 rlinecurve
            97 -9 -77 77 -101 hhcurveto
            -108 -81 -85 -103 hvcurveto
            endchar
          </CharString>
          <CharString index="310">
            235 226 49 76 128 vhcurveto
            390 vlineto
            79 15 23 118 16 vhcurveto
            142 -692 -142 vlineto
            130 -15 18 -23 -78 vvcurveto
            -298 vlineto
            -18 -24 -44 -11 -51 hhcurveto
            -225 -129 256 324 332 121 220 222 160 109 -98 -230 57 hvcurveto
            135 hlineto
            -8 417 rlineto
            67 -99 -190 34 -212 hhcurveto
            -494 -337 -298 -469 hvcurveto
            return
          </CharString>
          <CharString index="311">
            644 142 vlineto
            -79 12 -14 16 70 vvcurveto
            505 vlineto
            12 0 10 -1 10 vhcurveto
            34 16 53 25 -42 callgsubr
            681 41 callsubr
            476 vlineto
            229 -137 124 -218 -200 -139 -105 -103 -43 vhcurveto
            137 -34 -131 71 -175 hhcurveto
            -200 -139 -103 -102 -41 hvcurveto
            return
          </CharString>
          <CharString index="312">
            594 64 0 135 -71 20 rlineto
            -61 18 -11 16 62 vvcurveto
            621 vlineto
            -2 17 19 -1 20 hhcurveto
            147 109 80 137 2 hvcurveto
            2 122 -97 116 -123 59 rrcurveto
            -140 hlineto
            21 -27 19 -55 -64 vvcurveto
            -160 -117 -72 -332 -39 vhcurveto
            -148 -17 6 callsubr
            -468 vlineto
            -35 -19 -51 -26 -58 hhcurveto
            -89 -50 56 99 hvcurveto
            return
          </CharString>
          <CharString index="313">
            469 hlineto
            20 -7 741 0 vhcurveto
            42 19 49 32 65 hhcurveto
            87 56 -59 -157 -360 -4 -384 -9 -335 hvcurveto
            470 1124 hlineto
            284 -145 129 -230 -206 -128 -102 -117 -53 vhcurveto
            125 -22 -80 90 -160 hhcurveto
            -114 -112 -48 -53 -58 hvcurveto
            -135 vlineto
            3 8 20 1 16 hhcurveto
            74 27 -35 -106 -3 hvcurveto
            endchar
          </CharString>
          <CharString index="314">
            rmoveto
            116 104 46 60 50 hvcurveto
            137 vlineto
            -9 -11 -22 -8 -25 hhcurveto
            -68 -50 75 121 16 3 20 4 17 hvcurveto
            317 40 212 216 296 vvcurveto
            -102 callsubr
            -302 210 -208 332 -30 vhcurveto
            -90 -63 -74 -90 -101 vvcurveto
            -123 113 -95 145 vhcurveto
            3 651 rmoveto
            -103 -66 54 callgsubr
            endchar
          </CharString>
          <CharString index="315">
            74 22 19 109 13 vhcurveto
            142 -675 -142 vlineto
            74 -10 13 -18 -70 vvcurveto
            -649 -243 649 vlineto
            70 13 17 73 11 vhcurveto
            142 -630 -142 vlineto
            74 -10 12 -18 -70 vvcurveto
            -649 -243 649 vlineto
            70 14 17 73 11 vhcurveto
            142 -675 -142 vlineto
            -36 callsubr
            -33 callgsubr
            return
          </CharString>
          <CharString index="316">
            rmoveto
            609 vlineto
            256 -8 0 190 -256 -8 rlineto
            177 vlineto
            105 35 47 58 11 vhcurveto
            -8 -18 -4 -20 -21 vvcurveto
            -88 66 -59 83 81 67 60 87 127 -123 98 -226 -286 -193 -154 -308 vhcurveto
            -45 vlineto
            -138 -49 rlineto
            -134 131 -614 -61 callsubr
            -82 callsubr
            endchar
          </CharString>
          <CharString index="317">
            387 -1097 419 0 390 1094 59 166 25 24 121 18 rlinecurve
            142 -531 -142 vlineto
            150 -23 19 -30 -51 -156 rrcurveto
            -244 -739 -239 739 -50 157 18 29 150 23 rlinecurve
            142 -831 -142 vlineto
            123 -18 27 -24 58 -163 rrcurveto
            return
          </CharString>
          <CharString index="318">
            289 -734 325 0 290 738 54 137 18 16 96 19 rlinecurve
            142 -437 -142 vlineto
            115 -10 10 -27 -43 -123 rrcurveto
            -123 -352 -124 352 -44 125 12 24 116 11 rlinecurve
            142 -724 -142 vlineto
            96 -19 20 -20 54 -137 rrcurveto
            return
          </CharString>
          <CharString index="319">
            25 -32 17 -64 -1 -57 rrcurveto
            -126 -2 -73 -109 -158 -87 -86 34 -144 hhcurveto
            -379 -243 -240 -319 -327 243 -217 384 hvcurveto
            12 183 rmoveto
            -103 -66 145 235 230 55 128 102 103 65 -144 -236 -231 -54 -127 -102 hvcurveto
            return
          </CharString>
          <CharString index="320">
            rmoveto
            201 -166 130 -289 vhcurveto
            -241 126 hlineto
            84 24 21 126 16 vhcurveto
            142 -738 112 callsubr
            839 vlineto
            274 171 129 203 hvcurveto
            -647 168 rmoveto
            124 64 -68 -98 -101 -68 -65 -128 -4 hvcurveto
            -41 -1 rlineto
            337 vlineto
            endchar
          </CharString>
          <CharString index="321">
            834 vlineto
            377 302 159 277 hvcurveto
            -547 612 rmoveto
            -146 -89 -71 -147 vhcurveto
            -87 450 hlineto
            64 -2 rlineto
            166 -6 93 -80 -145 vvcurveto
            37 -629 rmoveto
            -168 -116 -80 -180 -6 vhcurveto
            -64 -2 rlineto
            505 87 vlineto
            176 97 -94 -155 hvcurveto
            return
          </CharString>
          <CharString index="322">
            rmoveto
            365 264 226 333 332 -246 212 -371 -366 -265 -224 -334 -331 246 -214 373 hvcurveto
            12 183 rmoveto
            -100 -60 142 239 232 52 125 96 99 60 -141 -240 -233 -52 -124 -95 hvcurveto
            endchar
          </CharString>
          <CharString index="323">
            1638 1567 436 rmoveto
            211 -163 131 -258 21 vhcurveto
            194 16 167 100 176 vvcurveto
            223 -218 130 -401 vhcurveto
            -834 -87 callsubr
            -107 callsubr
            -106 callsubr
            214 callsubr
            return
          </CharString>
          <CharString index="324">
            1255 671 1188 rmoveto
            257 146 154 194 29 -1 27 -4 20 hvcurveto
            -165 -1 hlineto
            -95 -92 -65 -141 -137 -95 65 95 vhcurveto
            1 -165 50 callsubr
            147 -154 256 vhcurveto
            -603 -675 rmoveto
            return
          </CharString>
          <CharString index="325">
            -416 284 -291 428 -40 vhcurveto
            -90 -58 -71 -94 -99 vvcurveto
            -130 109 -84 147 118 104 42 64 53 vhcurveto
            -23 callgsubr
            64 105 27 4 24 6 19 hvcurveto
            436 41 280 310 404 vvcurveto
            -100 callsubr
          </CharString>
          <CharString index="326">
            440 -290 rmoveto
            167 111 54 81 81 -111 53 -167 hvcurveto
            -90 hlineto
            -166 -111 -53 -81 -81 111 -54 166 hvcurveto
            62 93 rmoveto
            -34 hlineto
            -47 -24 16 26 26 25 16 46 hvcurveto
            34 hlineto
            45 26 -16 -26 -26 -26 -16 -45 hvcurveto
            return
          </CharString>
          <CharString index="327">
            68 -107 -183 39 -202 hhcurveto
            -430 -253 -197 -285 -221 144 -153 280 -83 hvcurveto
            137 -40 rlineto
            137 -40 62 -54 -91 vvcurveto
            -91 -83 -67 -141 -187 -148 98 214 -49 vhcurveto
            -136 hlineto
            9 -388 rlineto
            return
          </CharString>
          <CharString index="328">
            2099 rmoveto
            -98 -99 -29 -40 -64 hvcurveto
            -85 vlineto
            14 39 67 12 54 hhcurveto
            93 41 -26 -34 -33 -43 -27 -108 -16 hvcurveto
            126 -67 rlineto
            169 29 95 58 92 vvcurveto
            91 -109 61 -163 vhcurveto
            12 -570 -7 callsubr
            return
          </CharString>
          <CharString index="329">
            236 169 92 158 91 -61 66 -95 -92 -65 -66 -82 -31 10 -29 17 -24 hvcurveto
            -12 -35 -41 -8 -43 hhcurveto
            -43 -41 8 12 -35 hvcurveto
            17 24 10 29 31 vvcurveto
            82 -65 66 -92 -95 -61 -66 -91 -158 169 -92 236 vhcurveto
            return
          </CharString>
          <CharString index="330">
            -110 36 rlineto
            321 vlineto
            152 -7 102 -90 34 -180 rrcurveto
            135 hlineto
            -8 379 rlineto
            39 -84 -166 38 -165 hhcurveto
            199 -108 -204 vlineto
            -302 -28 -185 -153 -241 vvcurveto
            -211 128 -138 return
          </CharString>
          <CharString index="331">
            rmoveto
            203 92 57 callgsubr
            137 123 64 15 124 19 rlinecurve
            142 -556 -142 vlineto
            116 -14 17 -43 -111 -105 -148 -142 rcurveline
            -91 206 hlineto
            14 callsubr
            159 callsubr
          </CharString>
          <CharString index="332">
            1443 1444 rmoveto
            -1393 hlineto
            -8 -422 rlineto
            136 hlineto
            51 225 55 25 192 5 rrcurveto
            6 -990 hlineto
            -97 -22 -27 -143 -21 vhcurveto
            -142 808 142 vlineto
            -138 19 -19 19 91 vvcurveto
            return
          </CharString>
          <CharString index="333">
            -494 rmoveto
            101 117 29 41 53 hvcurveto
            137 vlineto
            -9 -18 -33 -8 -37 hhcurveto
            -62 -51 34 68 75 50 64 154 111 hvcurveto
            -171 hlineto
            -283 -138 -80 -111 -101 vvcurveto
            -126 110 -66 150 vhcurveto
            endchar
          </CharString>
          <CharString index="334">
            675 333 rmoveto
            -5 -371 rlineto
            135 hlineto
            61 176 31 28 158 5 rrcurveto
            -51 callgsubr
            -137 hlineto
            -48 -187 -45 -35 -149 -5 rrcurveto
            -120 -4 491 769 rlineto
            127 vlineto
            endchar
          </CharString>
          <CharString index="335">
            1532 rmoveto
            136 97 104 274 hvcurveto
            -163 hlineto
            -92 -17 -38 -45 -29 -23 13 25 -38 vhcurveto
            -32 21 rlineto
            44 -68 -56 20 -68 hhcurveto
            -136 -98 -104 -275 hvcurveto
            163 hlineto
            92 1 16 38 return
          </CharString>
          <CharString index="336">
            340 121 vlineto
            71 22 -23 -165 30 hvcurveto
            129 540 -129 hlineto
            -163 -29 -22 -26 -72 hhcurveto
            -121 491 hlineto
            162 -5 235 -9 39 -29 59 -225 rlinecurve
            136 hlineto
            endchar
          </CharString>
          <CharString index="337">
            106 350 10 -491 rlineto
            -50 -12 -10 -73 -11 vhcurveto
            -94 491 94 vlineto
            -83 11 -12 11 54 vvcurveto
            -9 504 rlineto
            53 12 11 82 12 vhcurveto
            93 vlineto
            -477 3 -112 -430 rlineto
            return
          </CharString>
          <CharString index="338">
            403 582 67 callgsubr
            94 vvcurveto
            118 41 callgsubr
            -41 -53 11 callgsubr
            32 vvcurveto
            61 -47 44 -63 -68 -45 -49 -61 -120 128 -89 199 vhcurveto
            return
          </CharString>
          <CharString index="339">
            hhcurveto
            261 210 204 363 hvcurveto
            -466 -33 rmoveto
            -222 -68 -111 -104 -55 -43 24 32 -15 vhcurveto
            540 vlineto
            36 15 44 29 54 hhcurveto
            103 69 -111 -217 hvcurveto
            endchar
          </CharString>
          <CharString index="340">
            1179 rmoveto
            238 187 59 callgsubr
            -48 -12 -56 hhcurveto
            -56 -48 12 21 -39 hvcurveto
            36 29 24 47 52 vvcurveto
            93 -72 76 -93 -111 -65 -68 -111 -189 return
          </CharString>
          <CharString index="341">
            1155 593 1465 rmoveto
            85 callgsubr
            return
          </CharString>
          <CharString index="342">
            -111 1106 rmoveto
            64 40 45 78 18 vhcurveto
            -273 vlineto
            return
          </CharString>
          <CharString index="343">
            342 2444 -342 hlineto
            410 -2444 rmoveto
            return
          </CharString>
          <CharString index="344">
            224 -491 vlineto
            187 87 rlineto
            198 95 89 93 return
          </CharString>
          <CharString index="345">
            186 411 rlineto
            16 vlineto
            138 116 callgsubr
            return
          </CharString>
          <CharString index="346">
            123 172 186 120 -148 -278 -249 return
          </CharString>
          <CharString index="347">
            123 100 86 123 124 -100 86 -123 -122 return
          </CharString>
          <CharString index="348">
            109 -14 22 -19 -72 vvcurveto
            -557 -61 callsubr
            return
          </CharString>
          <CharString index="349">
            78 133 195 -208 209 hhcurveto
            232 136 return
          </CharString>
          <CharString index="350">
            53 43 -43 -64 -63 -43 -43 -53 -53 -43 43 63 vhcurveto
            endchar
          </CharString>
          <CharString index="351">
            45 hhcurveto
            29 23 -13 -25 38 hvcurveto
            32 -21 rlineto
            -44 68 55 return
          </CharString>
          <CharString index="352">
            18 41 47 30 25 -14 -26 39 vhcurveto
            -76 callgsubr
            return
          </CharString>
          <CharString index="353">
            15 17 -32 vhcurveto
            -122 vlineto
            -26 49 81 -20 100 hhcurveto
            endchar
          </CharString>
          <CharString index="354">
            0 -385 1559 rmoveto
            770 188 -770 hlineto
            return
          </CharString>
          <CharString index="355">
            -21 -256 -205 -337 vvcurveto
            -335 257 -197 return
          </CharString>
          <CharString index="356">
            -67 -274 -43 -28 -228 -9 -218 -9 rcurveline
            490 return
          </CharString>
          <CharString index="357">
            -89 -188 35 vhcurveto
            135 hlineto
            -8 379 rlineto
            39 -83 return
          </CharString>
          <CharString index="358">
            rmoveto
            129 94 99 262 hvcurveto
            -153 hlineto
            -89 -17 -37 return
          </CharString>
          <CharString index="359">
            rmoveto
            106 84 73 105 105 -84 74 -106 108 callsubr
            return
          </CharString>
        <CharString name=".notdef">
          2048 34 -494 rmoveto
          236 callsubr
          342 2444 -342 hlineto
          409 -2444 rmoveto
          236 callsubr
          236 callsubr
          341 2444 -341 hlineto
          endchar
        </CharString>
        <CharString name=".null">
          0 endchar
        </CharString>
        <CharString name="A">
          1622 1418 347 -99 callsubr
        </CharString>
        <CharString name="AE">
          2047 1943 1444 164 callsubr
        </CharString>
        <CharString name="AEacute">
          2047 1274 1550 rmoveto
          407 321 rlineto
          13 -81 callsubr
          846 -106 164 callsubr
        </CharString>
        <CharString name="AEmacron">
          2047 930 -51 callsubr
          1013 -348 164 callsubr
        </CharString>
        <CharString name="Aacute">
          1622 797 -94 callsubr
          -40 callsubr
          798 -1203 -99 callsubr
        </CharString>
        <CharString name="Abreve">
          1622 810 84 callsubr
          -91 callgsubr
          4 callsubr
          608 -1214 -99 callsubr
        </CharString>
        <CharString name="Abreveacute">
          1622 1205 -16 callsubr
          395 -293 -7 callsubr
          608 -1182 -99 callsubr
        </CharString>
        <CharString name="Abrevecyrillic">
          1622 810 1543 rmoveto
          222 callsubr
          608 -1196 -99 callsubr
        </CharString>
        <CharString name="Abrevedotbelow">
          1622 810 84 callsubr
          -91 callgsubr
          4 callsubr
          608 -1214 rmoveto
          -8 callsubr
          74 callsubr
          -96 -711 86 callsubr
        </CharString>
        <CharString name="Abrevegrave">
          1622 415 1 callsubr
          395 -576 -7 callsubr
          608 -1182 -99 callsubr
        </CharString>
        <CharString name="Abrevehookabove">
          1622 798 221 callsubr
          608 -1182 -99 callsubr
        </CharString>
        <CharString name="Abrevetilde">
          1622 967 1847 rmoveto
          151 87 91 144 hvcurveto
          9 callsubr
          8 10 -36 vhcurveto
          -45 14 rlineto
          16 -53 -56 14 -62 hhcurveto
          -23 callsubr
          26 22 46 28 31 -8 -10 36 vhcurveto
          45 -14 rlineto
          -16 53 56 -14 62 hhcurveto
          -157 -318 -7 callsubr
          608 -1182 -99 callsubr
        </CharString>
        <CharString name="Acaron">
          1622 1049 -27 callsubr
          -97 callgsubr
          193 -1537 -99 callsubr
        </CharString>
        <CharString name="Acircumflex">
          1622 613 -50 callsubr
          145 callsubr
          980 -1203 -99 callsubr
        </CharString>
        <CharString name="Acircumflexacute">
          1622 1205 1891 93 callsubr
          2 -307 -20 callsubr
          95 callsubr
          1001 -1266 -99 callsubr
        </CharString>
        <CharString name="Acircumflexdotbelow">
          1622 613 -50 callsubr
          145 callsubr
          980 -1203 rmoveto
          -8 callsubr
          74 callsubr
          -96 -711 86 callsubr
        </CharString>
        <CharString name="Acircumflexgrave">
          1622 415 131 callsubr
          393 -87 0 116 95 callsubr
          1001 -1266 -99 callsubr
        </CharString>
        <CharString name="Acircumflexhookabove">
          1622 1138 -40 callgsubr
          64 12 52 hhcurveto
          89 187 callsubr
          -103 61 -157 vhcurveto
          -721 -547 -20 callsubr
          95 callsubr
          1001 -1266 -99 callsubr
        </CharString>
        <CharString name="Acircumflextilde">
          1622 967 1829 -58 callsubr
          9 callsubr
          7 11 8 callsubr
          -23 callsubr
          26 22 46 2 callsubr
          -550 -332 -20 callsubr
          95 callsubr
          1001 -1266 -99 callsubr
        </CharString>
        <CharString name="Acyrillic">
          1622 1418 347 -99 callsubr
        </CharString>
        <CharString name="Adblgrave">
          1622 660 87 callsubr
          204 hlineto
          321 -45 callgsubr
          292 -1203 -99 callsubr
        </CharString>
        <CharString name="Adieresis">
          1622 608 73 callsubr
          61 callsubr
          406 -1207 -99 callsubr
        </CharString>
        <CharString name="Adieresismacron">
          1622 415 140 callsubr
          -42 callsubr
          428 hmoveto
          78 -38 callgsubr
          416 -1201 -99 callsubr
        </CharString>
        <CharString name="Adotaccent">
          1622 810 -68 callsubr
          108 callsubr
          608 -1192 -99 callsubr
        </CharString>
        <CharString name="Adotbelow">
          1622 1418 347 rmoveto
          -8 callsubr
          74 callsubr
          -96 -711 86 callsubr
        </CharString>
        <CharString name="Adotmacron">
          1622 415 1853 55 callsubr
          395 -482 rmoveto
          86 callgsubr
          608 -1185 -99 callsubr
        </CharString>
        <CharString name="Agrave">
          1622 863 150 callsubr
          964 -1524 -99 callsubr
        </CharString>
        <CharString name="Ahookabove">
          1622 856 101 callsubr
          81 callsubr
          -85 callgsubr
          562 -1581 -99 callsubr
        </CharString>
        <CharString name="Ainvertedbreve">
          1622 810 182 callsubr
          -89 callgsubr
          155 callsubr
          608 -1575 -99 callsubr
        </CharString>
        <CharString name="Alphagreek">
          1622 1418 347 -99 callsubr
        </CharString>
        <CharString name="Alphatonosgreek">
          1622 1418 347 rmoveto
          -8 callsubr
          831 142 vlineto
          -123 18 -26 24 -60 163 rrcurveto
          -1201 671 rmoveto
          242 410 rlineto
          16 -382 vlineto
          -58 -426 rlineto
          476 -419 rmoveto
          169 495 166 -495 rlineto
          endchar
        </CharString>
        <CharString name="Amacron">
          1622 452 1585 rmoveto
          716 207 -716 hlineto
          966 -1445 -99 callsubr
        </CharString>
        <CharString name="Aogonek">
          1622 1221 -72 callgsubr
          99 callgsubr
          295 142 hlineto
          -123 18 -26 24 -60 163 rrcurveto
          -8 callsubr
          351 90 callgsubr
          -726 1093 rmoveto
          169 495 166 -495 rlineto
          endchar
        </CharString>
        <CharString name="Aring">
          1622 488 52 callgsubr
          694 -1416 -99 callsubr
        </CharString>
        <CharString name="Aringacute">
          1622 1205 1892 -26 callgsubr
          219 callsubr
          591 -1261 -99 callsubr
        </CharString>
        <CharString name="Aringbelow">
          1622 1418 347 rmoveto
          -8 callsubr
          74 callsubr
          -455 -890 rmoveto
          -129 151 -83 208 207 151 83 129 129 -151 84 -207 -208 -151 -84 -129 vhcurveto
          263 hmoveto
          49 43 34 53 52 43 -34 -49 -49 -43 -34 -52 -53 -43 34 49 vhcurveto
          endchar
        </CharString>
        <CharString name="Atilde">
          1622 963 178 callsubr
          50 callgsubr
          455 -1185 -99 callsubr
        </CharString>
        <CharString name="B">
          1638 1567 436 122 callsubr
        </CharString>
        <CharString name="Bdotaccent">
          1638 808 -68 callsubr
          108 callsubr
          759 -1103 122 callsubr
        </CharString>
        <CharString name="Bdotbelow">
          216 callsubr
          -249 -531 -67 callsubr
          104 86 -68 callgsubr
        </CharString>
        <CharString name="Becyrillic">
          1602 1536 429 rmoveto
          274 -235 149 -381 vhcurveto
          -225 426 hlineto
          221 -7 233 -6 38 -29 59 -214 rlinecurve
          136 hlineto
          -9 422 rlineto
          -1319 -142 hlineto
          135 -21 19 -21 -87 vvcurveto
          -107 callsubr
          -135 -21 vhcurveto
          -142 873 vlineto
          378 231 160 269 hvcurveto
          -510 -8 rmoveto
          -149 -91 -98 -169 -5 vhcurveto
          -71 -2 0 512 71 -2 rlineto
          165 -5 95 -101 -150 vvcurveto
          endchar
        </CharString>
        <CharString name="Betagreek">
          1638 1567 436 122 callsubr
        </CharString>
        <CharString name="Blinebelow">
          216 callsubr
          -618 -813 -76 callsubr
        </CharString>
        <CharString name="C">
          1507 -105 callgsubr
          -1 callsubr
          -31 callsubr
        </CharString>
        <CharString name="Cacute">
          1507 881 -94 callsubr
          -81 callsubr
          -620 -839 -60 callsubr
          -1 callsubr
          -31 callsubr
        </CharString>
        <CharString name="Ccaron">
          1507 1133 -15 callsubr
          -37 callsubr
          5 callsubr
          -1225 -1173 -60 callsubr
          -1 callsubr
          -31 callsubr
        </CharString>
        <CharString name="Ccedilla">
          1507 83 711 rmoveto
          -408 291 -282 412 -47 vhcurveto
          -88 -94 rlineto
          12 callsubr
          186 callsubr
          11 callsubr
          -12 callsubr
          51 47 rlineto
          186 5 182 42 96 69 8 416 rcurveline
          -30 callgsubr
          -31 callsubr
        </CharString>
        <CharString name="Ccedillaacute">
          1507 881 -94 callsubr
          -81 callsubr
          -620 -839 rmoveto
          -408 291 -282 412 -47 vhcurveto
          -88 -94 rlineto
          12 callsubr
          186 callsubr
          11 callsubr
          -12 callsubr
          51 47 rlineto
          186 5 182 42 96 69 8 416 rcurveline
          -30 callgsubr
          -31 callsubr
        </CharString>
        <CharString name="Ccircumflex">
          1507 697 134 callsubr
          -438 -839 -60 callsubr
          -1 callsubr
          -31 callsubr
        </CharString>
        <CharString name="Cdotaccent">
          1507 894 -68 callsubr
          109 callsubr
          -811 -828 -60 callsubr
          -1 callsubr
          -31 callsubr
        </CharString>
        <CharString name="Checyrillic">
          1794 1584 271 rmoveto
          902 vlineto
          104 callsubr
          122 -18 19 -18 -85 vvcurveto
          -396 vlineto
          -19 -44 -73 -15 -80 hhcurveto
          -155 -88 76 179 hvcurveto
          175 vlineto
          85 19 18 123 18 vhcurveto
          142 -769 -142 vlineto
          122 -18 19 -18 -85 vvcurveto
          -184 vlineto
          -319 206 -152 320 176 145 35 43 79 vhcurveto
          -317 vlineto
          -97 -25 -25 -153 -23 vhcurveto
          -142 821 142 vlineto
          -137 21 -20 21 87 vvcurveto
          endchar
        </CharString>
        <CharString name="Chigreek">
          1576 301 353 62 callsubr
        </CharString>
        <CharString name="D">
          1749 39 callsubr
          endchar
        </CharString>
        <CharString name="Dbar">
          1749 54 662 rmoveto
          156 -391 hlineto
          -87 -19 -21 -106 callsubr
          799 vlineto
          466 359 306 436 455 -337 247 -524 hvcurveto
          -763 -87 callsubr
          -355 -156 vlineto
          1088 -99 rmoveto
          -340 -151 -206 -226 -8 vhcurveto
          -68 -2 rlineto
          499 247 156 -247 463 vlineto
          68 -2 rlineto
          232 -9 145 -216 -335 vvcurveto
          endchar
        </CharString>
        <CharString name="Dcaron">
          1749 1066 -27 callsubr
          36 callsubr
          436 -1142 121 callsubr
          endchar
        </CharString>
        <CharString name="Dcircumflexbelow">
          1749 39 callsubr
          -610 -1201 -59 callsubr
          -47 callsubr
          47 callsubr
        </CharString>
        <CharString name="Dcommaaccent">
          1749 39 callsubr
          -432 -1213 -83 callgsubr
          -39 -21 -69 147 callsubr
        </CharString>
        <CharString name="Ddotaccent">
          1749 827 -73 callgsubr
          851 -797 121 callsubr
          endchar
        </CharString>
        <CharString name="Ddotbelow">
          1749 39 callsubr
          -390 -831 -53 callsubr
        </CharString>
        <CharString name="Decyrillic">
          1642 1609 172 rmoveto
          -200 985 105 callsubr
          -1377 -142 vlineto
          154 -17 25 -20 -6 -106 rrcurveto
          -6 -148 -20 -398 -40 -293 -133 -148 rlinecurve
          -151 hlineto
          -8 -488 rlineto
          137 hlineto
          272 62 81 44 235 hhcurveto
          572 hlineto
          249 70 -50 -266 62 hvcurveto
          137 hlineto
          -695 488 rmoveto
          -522 hlineto
          107 167 32 269 20 403 12 261 rcurveline
          351 hlineto
          endchar
        </CharString>
        <CharString name="Deltagreek">
          1491 30 hmoveto
          1431 243 hlineto
          -505 1201 -419 0 -507 -1200 rlineto
          246 76 rmoveto
          327 820 325 -820 rlineto
          endchar
        </CharString>
        <CharString name="Djecyrillic">
          1900 225 callsubr
          320 vlineto
          18 30 50 14 53 hhcurveto
          155 90 -103 -222 -249 -89 -182 -206 -144 hvcurveto
          64 -116 rlineto
          416 124 302 262 364 vvcurveto
          313 -219 179 -313 -143 -126 -37 -40 -64 vhcurveto
          505 113 callgsubr
        </CharString>
        <CharString name="Dlinebelow">
          1749 39 callsubr
          -760 -1113 -76 callsubr
        </CharString>
        <CharString name="Dzecyrillic">
          1423 655 -34 119 callsubr
          endchar
        </CharString>
        <CharString name="Dzhecyrillic">
          1826 1616 1173 rmoveto
          104 callsubr
          123 -21 18 -19 -81 vvcurveto
          -1009 -433 1009 vlineto
          81 15 callsubr
          -784 40 callsubr
          -107 callsubr
          -106 callsubr
          583 vlineto
          125 26 -31 -285 56 hvcurveto
          137 hlineto
          285 56 27 31 125 hhcurveto
          584 142 hlineto
          -137 21 -20 21 87 vvcurveto
          endchar
        </CharString>
        <CharString name="E">
          1444 1333 1444 -92 callsubr
        </CharString>
        <CharString name="Eacute">
          1444 753 -94 callsubr
          -40 callsubr
          757 -106 -92 callsubr
        </CharString>
        <CharString name="Ebreve">
          1444 766 84 callsubr
          -124 -89 56 81 vhcurveto
          1 -162 vlineto
          -4 4 callsubr
          567 -117 -92 callsubr
        </CharString>
        <CharString name="Ecaron">
          1444 1005 -27 callsubr
          -97 callgsubr
          152 -440 -92 callsubr
        </CharString>
        <CharString name="Ecedilla">
          1444 720 52 callsubr
          -128 64 -153 3 hvcurveto
          86 80 523 0 -34 callsubr
          -9 431 rlineto
          -45 callsubr
          626 176 callsubr
        </CharString>
        <CharString name="Ecedillabreve">
          1444 766 84 callsubr
          -124 -89 56 81 vhcurveto
          1 -162 vlineto
          -4 4 callsubr
          -46 -2055 rmoveto
          11 callsubr
          -128 64 -153 3 hvcurveto
          86 80 523 0 -34 callsubr
          -9 431 rlineto
          -45 callsubr
          626 176 callsubr
        </CharString>
        <CharString name="Ecircumflex">
          1444 569 -50 callsubr
          37 callsubr
          53 callsubr
          939 -106 -92 callsubr
        </CharString>
        <CharString name="Ecircumflexacute">
          1444 1161 102 callgsubr
          394 42 callsubr
          -349 -156 rlineto
          960 -169 -92 callsubr
        </CharString>
        <CharString name="Ecircumflexbelow">
          1444 1333 1444 rmoveto
          -45 callsubr
          1326 vlineto
          -34 callsubr
          -797 -1495 -59 callsubr
          167 0 -224 383 47 callsubr
        </CharString>
        <CharString name="Ecircumflexdotbelow">
          1444 569 -50 callsubr
          37 callsubr
          53 callsubr
          939 -106 rmoveto
          -45 callsubr
          1326 vlineto
          -34 callsubr
          -577 -1125 86 callsubr
        </CharString>
        <CharString name="Ecircumflexgrave">
          1444 371 131 callsubr
          394 42 callsubr
          -349 -156 rlineto
          960 -169 -92 callsubr
        </CharString>
        <CharString name="Ecircumflexhookabove">
          1444 1094 -40 callgsubr
          65 12 51 hhcurveto
          89 40 -26 -34 -33 -41 -27 -104 -16 hvcurveto
          121 -67 rlineto
          161 29 90 58 92 vvcurveto
          91 -103 61 -157 vhcurveto
          -721 -547 rmoveto
          393 87 394 42 callsubr
          -349 -156 rlineto
          960 -169 -92 callsubr
        </CharString>
        <CharString name="Ecircumflextilde">
          1444 923 1829 -58 callsubr
          -168 hlineto
          -43 -25 -21 -47 -28 -31 7 11 8 callsubr
          -150 -88 -91 -145 hvcurveto
          169 hlineto
          43 25 22 47 27 32 -8 -11 35 vhcurveto
          45 -13 rlineto
          -16 54 55 -14 62 hhcurveto
          -550 -332 rmoveto
          393 87 394 42 callsubr
          -349 -156 rlineto
          960 -169 -92 callsubr
        </CharString>
        <CharString name="Ecyrillic">
          1528 -105 callgsubr
          -1 callsubr
          -200 -123 210 280 -21 hvcurveto
          479 -7 0 191 -479 -7 rlineto
          283 20 119 182 205 hhcurveto
          8 callgsubr
        </CharString>
        <CharString name="Edblgrave">
          1444 616 87 callsubr
          204 hlineto
          321 334 rmoveto
          -347 -13 hlineto
          163 -321 rlineto
          189 hlineto
          250 -106 -92 callsubr
        </CharString>
        <CharString name="Edieresis">
          1444 564 129 callsubr
          364 -110 -92 callsubr
        </CharString>
        <CharString name="Edotaccent">
          1444 766 31 callsubr
          567 -95 -92 callsubr
        </CharString>
        <CharString name="Edotbelow">
          1444 1333 1444 rmoveto
          -45 callsubr
          1326 vlineto
          -34 callsubr
          -577 -1125 86 callsubr
        </CharString>
        <CharString name="Efcyrillic">
          2190 55 713 rmoveto
          -271 230 -177 585 -15 vhcurveto
          -94 -22 -26 -143 -22 vhcurveto
          -142 780 142 vlineto
          -141 21 -23 26 -1 95 rrcurveto
          585 15 230 175 287 vvcurveto
          271 -224 181 -591 15 vhcurveto
          94 22 26 143 22 vhcurveto
          142 -780 -142 vlineto
          142 -21 23 -26 -95 vvcurveto
          -591 -15 -224 -178 -288 vvcurveto
          1571 4 rmoveto
          -157 -95 -119 -211 -23 vhcurveto
          609 vlineto
          227 -23 79 -124 -163 vvcurveto
          -1061 7 rmoveto
          159 93 120 212 23 vhcurveto
          -609 vlineto
          -225 23 -80 122 162 vvcurveto
          endchar
        </CharString>
        <CharString name="Egrave">
          1444 819 149 callsubr
          923 -427 -92 callsubr
        </CharString>
        <CharString name="Ehookabove">
          1444 812 -48 callgsubr
          53 12 50 hhcurveto
          73 81 callsubr
          73 62 83 vvcurveto
          99 -97 66 -137 vhcurveto
          521 -484 -92 callsubr
        </CharString>
        <CharString name="Einvertedbreve">
          1444 766 1922 rmoveto
          -243 -138 -131 -165 -24 2 -24 4 188 callsubr
          567 -478 -92 callsubr
        </CharString>
        <CharString name="Elcyrillic">
          1666 55 callgsubr
          355 -1001 hlineto
          -91 -19 -19 -136 -19 vhcurveto
          -142 796 142 vlineto
          -135 19 -19 19 91 vvcurveto
          -75 callsubr
          135 19 vhcurveto
          142 -1369 2 callgsubr
          endchar
        </CharString>
        <CharString name="Emacron">
          1444 409 -51 callsubr
          924 -348 -92 callsubr
        </CharString>
        <CharString name="Emacronacute">
          1444 1161 -16 callsubr
          -15 callgsubr
          962 -303 -92 callsubr
        </CharString>
        <CharString name="Emacrongrave">
          1444 371 1 callsubr
          -16 callgsubr
          962 -303 -92 callsubr
        </CharString>
        <CharString name="Emcyrillic">
          2033 793 1444 64 callsubr
        </CharString>
        <CharString name="Encyrillic">
          22 callsubr
          -75 callsubr
          -74 callsubr
          -55 callsubr
          89 callsubr
          endchar
        </CharString>
        <CharString name="Eogonek">
          1444 1113 -72 callgsubr
          99 callgsubr
          156 hlineto
          -34 callsubr
          -9 431 rlineto
          -45 callsubr
          985 90 callgsubr
          endchar
        </CharString>
        <CharString name="Epsilongreek">
          1444 1333 1444 -92 callsubr
        </CharString>
        <CharString name="Epsilontonosgreek">
          1907 1796 1444 rmoveto
          -45 callsubr
          1326 vlineto
          9 483 rlineto
          -136 hlineto
          249 callsubr
          133 vlineto
          70 23 -24 -165 29 hvcurveto
          128 541 -128 hlineto
          -162 -29 -23 -27 -70 hhcurveto
          -133 465 hlineto
          183 -6 230 -9 36 -30 60 -223 rlinecurve
          136 hlineto
          -1607 5 34 callsubr
        </CharString>
        <CharString name="Ercyrillic">
          1624 1553 995 66 callsubr
        </CharString>
        <CharString name="Ereversedcyrillic">
          1529 110 77 rmoveto
          -68 104 203 -43 200 hhcurveto
          478 351 302 464 475 -335 271 -494 -213 -187 -43 -64 -102 hvcurveto
          -9 -381 rlineto
          136 hlineto
          231 52 109 67 147 hhcurveto
          201 130 -170 -294 26 hvcurveto
          -483 6 0 -191 485 6 rlineto
          -289 -18 -136 -200 -205 hhcurveto
          -147 -112 65 236 -53 hvcurveto
          -135 hlineto
          endchar
        </CharString>
        <CharString name="Escyrillic">
          1507 -105 callgsubr
          -1 callsubr
          -31 callsubr
        </CharString>
        <CharString name="Etagreek">
          22 callsubr
          -75 callsubr
          -74 callsubr
          -55 callsubr
          89 callsubr
          endchar
        </CharString>
        <CharString name="Etatonosgreek">
          2302 1160 263 rmoveto
          385 445 -385 vlineto
          -85 -19 -18 -122 -18 -39 callsubr
          -138 19 -19 19 91 vvcurveto
          -75 callsubr
          138 19 vhcurveto
          142 -784 -142 vlineto
          122 -18 19 -18 -85 vvcurveto
          -360 -445 359 -3 callsubr
          -902 45 callsubr
          89 callsubr
          -962 755 34 callsubr
        </CharString>
        <CharString name="Etilde">
          1444 920 228 callsubr
          46 hhcurveto
          28 23 -13 -25 38 hvcurveto
          -77 callgsubr
          413 -88 -92 callsubr
        </CharString>
        <CharString name="Etildebelow">
          1444 1333 1444 rmoveto
          -45 callsubr
          1326 vlineto
          -34 callsubr
          -431 -1481 251 callsubr
          -43 -28 -24 13 24 -35 vhcurveto
          -32 72 callgsubr
          73 callgsubr
        </CharString>
        <CharString name="F">
          1370 1320 1444 rmoveto
          -1266 -87 callsubr
          -107 callsubr
          -106 callsubr
          -11 callsubr
          229 callsubr
        </CharString>
        <CharString name="Fdotaccent">
          1370 767 31 callsubr
          553 -95 rmoveto
          -1266 -87 callsubr
          -107 callsubr
          -106 callsubr
          -11 callsubr
          229 callsubr
        </CharString>
        <CharString name="G">
          1664 -105 callgsubr
          203 callsubr
          endchar
        </CharString>
        <CharString name="Gacute">
          1664 880 -94 callsubr
          -81 callsubr
          -619 -839 -60 callsubr
          203 callsubr
          endchar
        </CharString>
        <CharString name="Gammagreek">
          1351 1300 1444 rmoveto
          -1246 -87 callsubr
          -107 callsubr
          -106 callsubr
          -11 callsubr
          191 callsubr
        </CharString>
        <CharString name="Gbreve">
          1664 893 137 callsubr
          -162 -1 hlineto
          -82 -86 -55 -127 -91 callgsubr
          4 callsubr
          -810 -850 -60 callsubr
          203 callsubr
          endchar
        </CharString>
        <CharString name="Gcaron">
          1664 1132 -15 callsubr
          -37 callsubr
          5 callsubr
          -1224 -1173 -60 callsubr
          203 callsubr
          endchar
        </CharString>
        <CharString name="Gcircumflex">
          1664 696 134 callsubr
          -437 -839 -60 callsubr
          203 callsubr
          endchar
        </CharString>
        <CharString name="Gcommaaccent">
          1664 -105 callgsubr
          203 callsubr
          770 -1205 132 callsubr
          133 callsubr
          99 hhcurveto
          endchar
        </CharString>
        <CharString name="Gdotaccent">
          1664 893 -68 callsubr
          -105 -85 -74 -105 -105 85 -73 105 hvcurveto
          -810 -828 -60 callsubr
          203 callsubr
          endchar
        </CharString>
        <CharString name="Geacutecyrillic">
          1351 668 -94 callsubr
          -81 callsubr
          810 -106 rmoveto
          -1246 -87 callsubr
          -107 callsubr
          -106 callsubr
          -11 callsubr
          191 callsubr
        </CharString>
        <CharString name="Gecyrillic">
          1351 1300 1444 rmoveto
          -1246 -87 callsubr
          -107 callsubr
          -106 callsubr
          -11 callsubr
          191 callsubr
        </CharString>
        <CharString name="Germandbls">
          1782 696 hmoveto
          1281 vlineto
          162 -5 rlineto
          236 -8 88 -85 -114 vvcurveto
          -113 -89 -59 -116 -10 vhcurveto
          -289 vlineto
          196 -44 114 -111 -143 vvcurveto
          -86 -48 -54 -84 -109 -77 107 181 -26 vhcurveto
          -135 -379 hlineto
          -57 75 133 -42 174 hhcurveto
          256 265 129 300 221 -132 185 -190 71 hvcurveto
          156 21 106 95 128 vvcurveto
          192 -196 132 -448 vhcurveto
          -954 -87 callsubr
          -107 callsubr
          -106 callsubr
          vlineto
          endchar
        </CharString>
        <CharString name="Geupturncyrillic">
          1319 1269 1272 rmoveto
          8 488 rlineto
          -137 hlineto
          -285 -94 -44 -31 -211 hhcurveto
          -737 -87 callsubr
          -107 callsubr
          -106 callsubr
          -11 callsubr
          985 vlineto
          endchar
        </CharString>
        <CharString name="Gmacron">
          1664 535 -51 callsubr
          -452 -1081 -60 callsubr
          203 callsubr
          endchar
        </CharString>
        <CharString name="H">
          22 callsubr
          -75 callsubr
          -74 callsubr
          -55 callsubr
          89 callsubr
          endchar
        </CharString>
        <CharString name="Hacyrillic">
          1576 301 353 62 callsubr
        </CharString>
        <CharString name="Hardsigncyrillic">
          1838 1783 466 rmoveto
          274 -227 172 -388 vhcurveto
          -226 245 hlineto
          1 97 21 27 144 21 rrcurveto
          142 -1058 vlineto
          -8 -422 rlineto
          136 hlineto
          51 224 49 26 178 5 rrcurveto
          -1005 vlineto
          -88 -20 -21 -138 -21 vhcurveto
          -142 878 -7 callgsubr
          -510 -7 rmoveto
          -170 -78 -114 -185 -6 vhcurveto
          -68 -2 rlineto
          573 60 vlineto
          163 108 -104 -177 hvcurveto
          endchar
        </CharString>
        <CharString name="Hbar">
          22 callsubr
          712 156 156 -156 34 vlineto
          91 19 19 -74 callsubr
          -42 -444 41 -3 callsubr
          -34 -156 -156 156 -712 45 callsubr
          89 callsubr
          558 vmoveto
          162 444 -162 vlineto
          endchar
        </CharString>
        <CharString name="Hbrevebelow">
          22 callsubr
          -75 callsubr
          -74 callsubr
          -55 callsubr
          89 callsubr
          222 -744 rmoveto
          -25 callgsubr
          21 callgsubr
          136 -138 238 vhcurveto
          endchar
        </CharString>
        <CharString name="Hcaron">
          1838 1158 1883 rmoveto
          -218 -145 -37 callsubr
          36 callsubr
          -637 -1620 rmoveto
          385 444 -385 195 callsubr
          -75 callsubr
          -74 callsubr
          -55 callsubr
          89 callsubr
          endchar
        </CharString>
        <CharString name="Hcedilla">
          1838 392 -494 rmoveto
          -52 callgsubr
          87 80 rlineto
          309 142 hlineto
          -124 20 -17 20 81 vvcurveto
          385 444 -385 195 callsubr
          -75 callsubr
          -74 callsubr
          -55 callsubr
          297 vlineto
          -113 -120 72 callsubr
          98 hhcurveto
          endchar
        </CharString>
        <CharString name="Hcircumflex">
          1838 723 1550 rmoveto
          218 144 219 -144 177 0 -218 333 -354 0 -218 -333 rlineto
          150 -1287 rmoveto
          385 444 -385 195 callsubr
          -75 callsubr
          -74 callsubr
          -55 callsubr
          89 callsubr
          endchar
        </CharString>
        <CharString name="Hdieresis">
          1838 717 1553 rmoveto
          95 76 67 97 96 -76 67 -95 -94 -76 -67 -96 -97 76 -67 94 hvcurveto
          405 hmoveto
          94 76 67 97 96 -76 67 -94 -94 -77 -67 -96 -97 76 -67 95 hvcurveto
          -425 -1290 rmoveto
          385 444 -385 195 callsubr
          -75 callsubr
          -74 callsubr
          -55 callsubr
          89 callsubr
          endchar
        </CharString>
        <CharString name="Hdotaccent">
          1838 919 1538 252 callsubr
          -222 -1275 rmoveto
          385 444 -385 195 callsubr
          -75 callsubr
          -74 callsubr
          -55 callsubr
          89 callsubr
          endchar
        </CharString>
        <CharString name="Hdotbelow">
          22 callsubr
          -75 callsubr
          -74 callsubr
          -55 callsubr
          89 callsubr
          222 -375 -67 callsubr
          103 callsubr
        </CharString>
        <CharString name="I">
          907 697 20 callsubr
          -103 callsubr
          -107 callsubr
          -106 callsubr
          -83 callsubr
        </CharString>
        <CharString name="IAcyrillic">
          1600 99 991 rmoveto
          -176 112 -114 143 -45 vhcurveto
          -154 -287 -89 -167 -33 -45 -65 -21 rlinecurve
          -136 482 vlineto
          298 584 rlineto
          108 -321 hlineto
          -81 -17 -19 -124 -21 -39 callsubr
          -136 21 -20 21 87 vvcurveto
          -28 callgsubr
          -866 vlineto
          -397 -182 -201 -252 hvcurveto
          488 23 rmoveto
          168 89 92 155 5 vhcurveto
          70 2 rlineto
          -531 -77 vlineto
          -130 -107 94 170 hvcurveto
          endchar
        </CharString>
        <CharString name="IJ">
          1814 697 20 callsubr
          -103 callsubr
          -107 callsubr
          79 callsubr
          18 callsubr
          907 23 rmoveto
          879 -19 callsubr
          -103 callsubr
          -32 callsubr
          54 callsubr
        </CharString>
        <CharString name="IJacute">
          1814 441 -94 callsubr
          -81 callsubr
          1084 hmoveto
          406 321 rlineto
          13 -40 callsubr
          -473 -1279 -80 callsubr
          -103 callsubr
          -107 callsubr
          79 callsubr
          18 callsubr
          907 23 rmoveto
          879 -19 callsubr
          -103 callsubr
          -32 callsubr
          54 callsubr
        </CharString>
        <CharString name="IUcyrillic">
          2519 697 263 rmoveto
          385 132 vlineto
          -410 32 316 -272 451 hhcurveto
          488 320 326 434 hvcurveto
          449 1 -325 303 -476 hhcurveto
          -449 -307 -275 -382 -47 hvcurveto
          -136 359 hlineto
          82 15 callsubr
          -784 40 callsubr
          -107 callsubr
          -106 callsubr
          -43 callsubr
          940 -107 rmoveto
          -175 -100 244 336 329 80 223 185 174 100 -244 -336 -329 -80 -223 -184 hvcurveto
          endchar
        </CharString>
        <CharString name="Iacute">
          907 441 -94 callsubr
          -81 callsubr
          434 -1279 -80 callsubr
          -103 callsubr
          -107 callsubr
          -106 callsubr
          -83 callsubr
        </CharString>
        <CharString name="Ibreve">
          907 453 137 callsubr
          -161 -1 hlineto
          -82 -86 -55 -128 -124 -89 56 81 vhcurveto
          1 -162 vlineto
          -3 -17 -2 -23 -24 vvcurveto
          -166 138 -131 242 vhcurveto
          244 -1290 -80 callsubr
          -103 callsubr
          -107 callsubr
          -106 callsubr
          -83 callsubr
        </CharString>
        <CharString name="Icaron">
          907 693 -15 callsubr
          -37 callsubr
          5 callsubr
          -171 -1613 -80 callsubr
          -103 callsubr
          -107 callsubr
          -106 callsubr
          -83 callsubr
        </CharString>
        <CharString name="Icircumflex">
          907 257 62 callgsubr
          616 -1279 -80 callsubr
          -103 callsubr
          -107 callsubr
          -106 callsubr
          -83 callsubr
        </CharString>
        <CharString name="Icyrillic">
          907 697 20 callsubr
          -103 callsubr
          -107 callsubr
          -106 callsubr
          -83 callsubr
        </CharString>
        <CharString name="Idblgrave">
          907 303 87 callsubr
          204 -62 callgsubr
          -73 -1279 -80 callsubr
          -103 callsubr
          -107 callsubr
          -106 callsubr
          -83 callsubr
        </CharString>
        <CharString name="Idieresis">
          907 251 1554 rmoveto
          -106 callgsubr
          -94 -76 60 callsubr
          -107 callgsubr
          41 -1283 -80 callsubr
          -103 callsubr
          -107 callsubr
          -106 callsubr
          -83 callsubr
        </CharString>
        <CharString name="Idieresisacute">
          907 849 -16 callsubr
          202 -274 rmoveto
          78 -38 callgsubr
          428 hmoveto
          78 63 49 70 70 -63 48 -78 hvcurveto
          -42 callsubr
          51 -1277 -80 callsubr
          -103 callsubr
          -107 callsubr
          -106 callsubr
          -83 callsubr
        </CharString>
        <CharString name="Idotaccent">
          907 453 -73 callgsubr
          244 -1268 -80 callsubr
          -103 callsubr
          -107 callsubr
          -106 callsubr
          -83 callsubr
        </CharString>
        <CharString name="Idotbelow">
          907 697 20 callsubr
          -103 callsubr
          -107 callsubr
          79 callsubr
          18 callsubr
          -238 -383 -67 callsubr
          103 callsubr
        </CharString>
        <CharString name="Iecyrillic">
          1444 1333 1444 -92 callsubr
        </CharString>
        <CharString name="Igrave">
          907 506 149 callsubr
          600 -1600 -80 callsubr
          -103 callsubr
          -107 callsubr
          -106 callsubr
          -83 callsubr
        </CharString>
        <CharString name="Ihookabove">
          907 499 -48 callgsubr
          17 callgsubr
          198 -1657 -80 callsubr
          -103 callsubr
          -107 callsubr
          -106 callsubr
          -83 callsubr
        </CharString>
        <CharString name="Iicyrillic">
          1873 697 263 rmoveto
          18 vlineto
          479 628 rlineto
          -646 195 callsubr
          -75 callsubr
          -74 callsubr
          -18 vlineto
          -479 -628 rlineto
          645 -3 callsubr
          -107 callsubr
          -106 callsubr
          -43 callsubr
          endchar
        </CharString>
        <CharString name="Iinvertedbreve">
          907 453 1922 rmoveto
          -243 -137 -131 -165 -24 2 -24 3 188 callsubr
          244 -1651 -80 callsubr
          -103 callsubr
          -107 callsubr
          -106 callsubr
          -83 callsubr
        </CharString>
        <CharString name="Iishortcyrillic">
          1873 937 22 callgsubr
          -43 hhcurveto
          -44 33 callgsubr
          -240 -1280 rmoveto
          18 vlineto
          479 628 rlineto
          -646 195 callsubr
          -75 callsubr
          -74 callsubr
          -18 vlineto
          -479 -628 rlineto
          645 -3 callsubr
          -107 callsubr
          -106 callsubr
          -43 callsubr
          endchar
        </CharString>
        <CharString name="Imacron">
          907 96 -51 callsubr
          601 -1521 -80 callsubr
          -103 callsubr
          -107 callsubr
          -106 callsubr
          -83 callsubr
        </CharString>
        <CharString name="Iocyrillic">
          1444 564 129 callsubr
          364 -110 -92 callsubr
        </CharString>
        <CharString name="Iogonek">
          907 452 -72 callgsubr
          53 hvcurveto
          137 vlineto
          -10 -11 -24 -7 -26 hhcurveto
          -55 -63 69 111 36 6 29 9 23 hvcurveto
          290 142 hlineto
          18 callsubr
          902 -19 callsubr
          -103 callsubr
          -107 callsubr
          -106 callsubr
          323 vlineto
          -98 -59 -83 -108 -113 vvcurveto
          -130 109 -84 147 vhcurveto
          endchar
        </CharString>
        <CharString name="Iotadieresisgreek">
          907 251 1554 rmoveto
          -106 callgsubr
          -94 -76 60 callsubr
          -107 callgsubr
          41 -1283 -80 callsubr
          -103 callsubr
          -107 callsubr
          -106 callsubr
          -83 callsubr
        </CharString>
        <CharString name="Iotagreek">
          907 697 20 callsubr
          -103 callsubr
          -107 callsubr
          -106 callsubr
          -83 callsubr
        </CharString>
        <CharString name="Iotatonosgreek">
          1370 1160 271 rmoveto
          -28 callgsubr
          -103 callsubr
          -107 callsubr
          79 callsubr
          -136 21 -20 21 87 vvcurveto
          -962 747 34 callsubr
        </CharString>
        <CharString name="Itilde">
          907 607 94 callsubr
          -92 callgsubr
          183 callsubr
          90 -1261 -80 callsubr
          -103 callsubr
          -107 callsubr
          -106 callsubr
          -83 callsubr
        </CharString>
        <CharString name="Itildebelow">
          907 697 20 callsubr
          -103 callsubr
          -107 callsubr
          79 callsubr
          18 callsubr
          -91 -739 251 callsubr
          -44 -27 -24 13 24 -36 vhcurveto
          -31 72 callgsubr
          73 callgsubr
        </CharString>
        <CharString name="J">
          907 697 294 rmoveto
          879 -19 callsubr
          -103 callsubr
          -32 callsubr
          54 callsubr
        </CharString>
        <CharString name="Jacute">
          907 440 1550 rmoveto
          407 321 rlineto
          13 -81 callsubr
          434 -1256 rmoveto
          879 -19 callsubr
          -103 callsubr
          -32 callsubr
          54 callsubr
        </CharString>
        <CharString name="Jcircumflex">
          907 256 -50 callsubr
          37 callsubr
          53 callsubr
          616 -1256 rmoveto
          879 -19 callsubr
          -103 callsubr
          -32 callsubr
          54 callsubr
        </CharString>
        <CharString name="Jecyrillic">
          907 697 294 rmoveto
          879 -19 callsubr
          -103 callsubr
          -32 callsubr
          54 callsubr
        </CharString>
        <CharString name="K">
          1651 697 263 21 callsubr
        </CharString>
        <CharString name="Kaacutecyrillic">
          1651 904 -94 callsubr
          -81 callsubr
          -29 -1287 21 callsubr
        </CharString>
        <CharString name="Kacute">
          1651 904 -94 callsubr
          -81 callsubr
          -29 -1287 21 callsubr
        </CharString>
        <CharString name="Kacyrillic">
          1651 697 263 21 callsubr
        </CharString>
        <CharString name="Kappagreek">
          1651 697 263 21 callsubr
        </CharString>
        <CharString name="Kcaron">
          1651 1155 -27 callsubr
          36 callsubr
          -634 -1621 21 callsubr
        </CharString>
        <CharString name="Kcommaaccent">
          165 callsubr
          169 -757 rmoveto
          189 132 -10 callgsubr
          -100 -83 -10 callsubr
          106 callsubr
          -67 callgsubr
        </CharString>
        <CharString name="Kdotbelow">
          165 callsubr
          210 -375 -53 callsubr
        </CharString>
        <CharString name="Klinebelow">
          165 callsubr
          -160 -657 -76 callsubr
        </CharString>
        <CharString name="L">
          32 callsubr
          endchar
        </CharString>
        <CharString name="Lacute">
          1343 439 -94 callsubr
          -40 callsubr
          1031 -1550 rmoveto
          3 callsubr
          25 callsubr
          endchar
        </CharString>
        <CharString name="Lambdagreek">
          1650 1442 315 rmoveto
          -408 1129 -419 0 -401 -1100 -58 -159 -27 -28 -118 -15 rlinecurve
          -142 531 142 vlineto
          -148 21 -20 35 48 145 rrcurveto
          255 751 252 -755 46 -139 -19 -37 -149 -21 rlinecurve
          -142 831 142 vlineto
          -105 16 -40 15 -51 142 rrcurveto
          endchar
        </CharString>
        <CharString name="Lcaron">
          1343 1141 1185 -96 callgsubr
          301 -1185 rmoveto
          3 callsubr
          25 callsubr
          endchar
        </CharString>
        <CharString name="Lcircumflexbelow">
          32 callsubr
          430 -482 -59 callsubr
          -47 callsubr
          48 callsubr
        </CharString>
        <CharString name="Lcommaaccent">
          32 callsubr
          609 -494 -100 callgsubr
          -153 -100 -83 -10 callsubr
          22 7 33 6 32 -1 rrcurveto
          55 -2 42 -16 -35 vvcurveto
          -34 -39 -21 -70 -54 -59 15 17 -31 vhcurveto
          -122 vlineto
          -26 49 81 -20 100 hhcurveto
          endchar
        </CharString>
        <CharString name="Ldot">
          32 callsubr
          1027 672 rmoveto
          123 100 87 123 124 -100 86 -123 -122 -100 -86 -124 -123 99 -87 123 hvcurveto
          endchar
        </CharString>
        <CharString name="Ldotbelow">
          32 callsubr
          650 -112 -53 callsubr
        </CharString>
        <CharString name="Ldotbelowmacron">
          1343 95 -51 callsubr
          1198 -1792 rmoveto
          3 callsubr
          25 callsubr
          650 -112 -53 callsubr
        </CharString>
        <CharString name="Ljecyrillic">
          2320 55 callgsubr
          322 -1001 hlineto
          -91 -19 -19 -137 -19 vhcurveto
          -142 877 vlineto
          383 223 188 278 274 -227 172 -387 hvcurveto
          -227 245 hlineto
          97 22 27 144 21 vhcurveto
          142 -1347 2 callgsubr
          1753 294 rmoveto
          -170 -77 -114 -184 -6 vhcurveto
          -70 -2 rlineto
          573 62 vlineto
          161 108 -104 -177 hvcurveto
          endchar
        </CharString>
        <CharString name="Llinebelow">
          32 callsubr
          280 -394 -76 callsubr
        </CharString>
        <CharString name="Lslash">
          1343 54 589 rmoveto
          156 35 rlineto
          -353 45 callsubr
          1239 vlineto
          3 callsubr
          rrcurveto
          -133 -4 0 569 304 67 0 168 -304 -68 rlineto
          276 -6 callgsubr
          -808 40 callsubr
          -381 vlineto
          -156 -35 rlineto
          endchar
        </CharString>
        <CharString name="M">
          2033 793 1444 64 callsubr
        </CharString>
        <CharString name="Macute">
          2033 1008 -94 callsubr
          -81 callsubr
          -37 -106 64 callsubr
        </CharString>
        <CharString name="Mdotaccent">
          2033 1021 -68 callsubr
          -104 -86 -74 -105 -105 85 -73 105 hvcurveto
          -228 -95 64 callsubr
        </CharString>
        <CharString name="Mdotbelow">
          2033 793 1444 rmoveto
          -736 -142 hlineto
          123 -18 20 -29 -2 -108 rrcurveto
          -17 -881 -2 -87 -17 -18 -122 -19 rlinecurve
          -142 490 142 vlineto
          -123 19 -17 18 -1 87 rrcurveto
          -7 881 349 -1147 290 0 124 454 199 694 17 -885 2 -85 -20 -18 -123 -18 rlinecurve
          -142 774 142 vlineto
          -138 19 -17 19 -2 91 rrcurveto
          -17 902 -2 91 21 19 138 19 rlinecurve
          142 vlineto
          -740 4 -210 -820 rlineto
          -154 -740 -67 callsubr
          104 86 -68 callgsubr
        </CharString>
        <CharString name="Mugreek">
          2033 793 1444 64 callsubr
        </CharString>
        <CharString name="N">
          1641 -21 callsubr
          -5 callsubr
          endchar
        </CharString>
        <CharString name="Nacute">
          1641 855 -94 callsubr
          -40 callsubr
          55 -106 -4 callsubr
          -5 callsubr
          endchar
        </CharString>
        <CharString name="Ncaron">
          1641 1107 -27 callsubr
          36 callsubr
          -550 -440 -4 callsubr
          -5 callsubr
          endchar
        </CharString>
        <CharString name="Ncircumflexbelow">
          1641 -21 callsubr
          -5 callsubr
          -719 -897 -59 callsubr
          -47 callsubr
          48 callsubr
        </CharString>
        <CharString name="Ncommaaccent">
          1641 -21 callsubr
          -5 callsubr
          -541 -909 132 callsubr
          133 callsubr
          99 hhcurveto
          endchar
        </CharString>
        <CharString name="Ndotaccent">
          1641 868 31 callsubr
          -135 -95 -4 callsubr
          -5 callsubr
          endchar
        </CharString>
        <CharString name="Ndotbelow">
          1641 -21 callsubr
          -5 callsubr
          -499 -527 -53 callsubr
        </CharString>
        <CharString name="Ngrave">
          1641 921 149 callsubr
          221 -427 -4 callsubr
          -5 callsubr
          endchar
        </CharString>
        <CharString name="Njecyrillic">
          2510 697 263 rmoveto
          425 431 -425 vlineto
          -81 -18 -19 -123 -21 vhcurveto
          -142 865 vlineto
          381 222 179 265 256 -225 161 -386 hvcurveto
          -229 296 105 callsubr
          -793 -142 vlineto
          123 -21 18 -19 -82 vvcurveto
          -319 -431 319 -3 callsubr
          -107 callsubr
          -106 callsubr
          -43 callsubr
          1249 173 rmoveto
          -157 -77 -104 -182 -6 vhcurveto
          -72 -2 rlineto
          521 63 vlineto
          160 108 -93 -159 hvcurveto
          endchar
        </CharString>
        <CharString name="Nlinebelow">
          1641 -21 callsubr
          -5 callsubr
          -869 -809 -76 callsubr
        </CharString>
        <CharString name="Ntilde">
          1641 1022 94 callsubr
          -92 callgsubr
          -38 vhcurveto
          -32 112 callgsubr
          163 hlineto
          92 1 16 38 46 hhcurveto
          28 24 -13 -25 37 hvcurveto
          -77 callgsubr
          -289 -88 -4 callsubr
          -5 callsubr
          endchar
        </CharString>
        <CharString name="Nugreek">
          1641 -21 callsubr
          -5 callsubr
          endchar
        </CharString>
        <CharString name="O">
          16 callsubr
          80 callsubr
          -100 callsubr
        </CharString>
        <CharString name="OE">
          2245 83 717 rmoveto
          -434 334 -317 459 vhcurveto
          161 119 34 134 hhcurveto
          892 hlineto
          8 483 rlineto
          -135 hlineto
          -68 -274 -36 -32 -215 -7 -192 -7 rcurveline
          490 123 vlineto
          70 22 -24 -166 30 hvcurveto
          128 544 -128 hlineto
          -164 -30 -22 -27 -70 hhcurveto
          -123 465 hlineto
          163 -5 228 -9 35 -31 59 -221 rlinecurve
          136 hlineto
          -8 429 rlineto
          -852 hlineto
          -119 -104 34 -168 hhcurveto
          -512 -319 -319 -442 hvcurveto
          511 -2 rmoveto
          335 150 238 235 28 27 -3 -7 23 vhcurveto
          -1111 vlineto
          -7 -29 -34 -4 -35 hhcurveto
          -224 -141 232 327 hvcurveto
          endchar
        </CharString>
        <CharString name="Oacute">
          1795 888 -94 callsubr
          -81 callsubr
          -627 -832 -104 callsubr
          -100 callsubr
        </CharString>
        <CharString name="Obreve">
          1795 901 137 callsubr
          -162 -1 hlineto
          -82 -86 -55 -127 -91 callgsubr
          4 callsubr
          -818 -843 -104 callsubr
          -100 callsubr
        </CharString>
        <CharString name="Ocaron">
          1795 1140 -15 callsubr
          -37 callsubr
          5 callsubr
          -1232 -1166 -104 callsubr
          -100 callsubr
        </CharString>
        <CharString name="Ocircumflex">
          1795 704 134 callsubr
          -445 -832 -104 callsubr
          -100 callsubr
        </CharString>
        <CharString name="Ocircumflexacute">
          1795 1296 102 callgsubr
          393 42 callsubr
          -348 -156 rlineto
          -425 -895 -104 callsubr
          -100 callsubr
        </CharString>
        <CharString name="Ocircumflexdotbelow">
          1795 704 134 callsubr
          -445 -832 -104 callsubr
          448 -330 304 -484 -71 callgsubr
          vhcurveto
          -90 callgsubr
          49 callsubr
          35 callsubr
          278 -848 -67 callsubr
          105 85 -68 callgsubr
        </CharString>
        <CharString name="Ocircumflexgrave">
          1795 506 131 callsubr
          393 42 callsubr
          -348 -156 rlineto
          -425 -895 -104 callsubr
          -100 callsubr
        </CharString>
        <CharString name="Ocircumflexhookabove">
          1795 1229 2044 rmoveto
          -94 -95 -29 -40 -60 hvcurveto
          -85 vlineto
          14 36 65 12 51 hhcurveto
          90 187 callsubr
          -104 61 -156 vhcurveto
          -721 -547 -20 callsubr
          -349 156 -89 0 -348 -156 rlineto
          -425 -895 -104 callsubr
          -100 callsubr
        </CharString>
        <CharString name="Ocircumflextilde">
          1795 1058 1829 -58 callsubr
          -80 callgsubr
          7 11 130 callsubr
          -550 -332 -20 callsubr
          -349 156 -89 0 -348 -156 rlineto
          -425 -895 -104 callsubr
          -100 callsubr
        </CharString>
        <CharString name="Ocyrillic">
          16 callsubr
          80 callsubr
          -100 callsubr
        </CharString>
        <CharString name="Odblgrave">
          1795 751 1884 rmoveto
          -389 -13 hlineto
          325 -321 rlineto
          204 -62 callgsubr
          -1134 -832 -104 callsubr
          -100 callsubr
        </CharString>
        <CharString name="Odieresis">
          1795 699 73 callsubr
          -94 -76 60 callsubr
          -1020 -836 -104 callsubr
          -100 callsubr
        </CharString>
        <CharString name="Odieresismacron">
          1795 506 140 callsubr
          -22 -4 callgsubr
          428 82 callsubr
          -1010 -830 -104 callsubr
          -100 callsubr
        </CharString>
        <CharString name="Odotaccent">
          1795 901 -68 callsubr
          -105 -85 -74 -105 -105 85 -73 105 hvcurveto
          -818 -821 -104 callsubr
          -100 callsubr
        </CharString>
        <CharString name="Odotaccentmacron">
          1795 506 1853 55 callsubr
          395 -482 rmoveto
          86 68 56 78 79 -68 54 -86 -85 -70 -54 -79 -78 69 -56 86 hvcurveto
          -818 -814 -104 callsubr
          -100 callsubr
        </CharString>
        <CharString name="Odotbelow">
          16 callsubr
          80 callsubr
          448 -330 304 -484 -71 callgsubr
          vhcurveto
          -90 callgsubr
          49 callsubr
          35 callsubr
          278 -848 -67 callsubr
          105 85 -68 callgsubr
        </CharString>
        <CharString name="Ograve">
          1795 954 1550 rmoveto
          177 hlineto
          -105 334 rlineto
          -481 -13 hlineto
          -462 -1153 -104 callsubr
          -100 callsubr
        </CharString>
        <CharString name="Ohookabove">
          1795 947 101 callsubr
          40 -22 -44 -38 -28 -39 -109 -64 hvcurveto
          146 hlineto
          190 65 -85 callgsubr
          -864 -1210 -104 callsubr
          -100 callsubr
        </CharString>
        <CharString name="Ohorn">
          1859 83 718 -104 callsubr
          65 callsubr
        </CharString>
        <CharString name="Ohornacute">
          1859 897 -94 callsubr
          -40 callsubr
          -637 -832 -104 callsubr
          65 callsubr
        </CharString>
        <CharString name="Ohorndotbelow">
          1859 83 718 -104 callsubr
          261 -123 230 -188 124 vhcurveto
          -7 39 43 -4 44 hhcurveto
          171 118 72 140 2 hvcurveto
          1 121 -102 117 -126 61 rrcurveto
          -140 hlineto
          25 -31 17 -65 -1 -57 rrcurveto
          -127 -1 -67 -109 -149 -109 -121 26 -147 -27 callgsubr
          49 callsubr
          35 callsubr
          277 -848 -67 callsubr
          105 85 -68 callgsubr
        </CharString>
        <CharString name="Ohorngrave">
          1859 963 150 callsubr
          -471 -1153 -104 callsubr
          65 callsubr
        </CharString>
        <CharString name="Ohornhookabove">
          1859 956 101 callsubr
          81 callsubr
          -85 callgsubr
          -873 -1210 -104 callsubr
          65 callsubr
        </CharString>
        <CharString name="Ohorntilde">
          1859 1063 178 callsubr
          50 callgsubr
          -980 -814 -104 callsubr
          65 callsubr
        </CharString>
        <CharString name="Ohungarumlaut">
          1795 641 1884 64 callgsubr
          208 0 325 321 rlineto
          13 vlineto
          -1408 -1166 -104 callsubr
          -100 callsubr
        </CharString>
        <CharString name="Oinvertedbreve">
          1795 901 182 callsubr
          124 89 -56 -81 vhcurveto
          -1 162 vlineto
          4 155 callsubr
          -818 -1204 -104 callsubr
          -100 callsubr
        </CharString>
        <CharString name="Omacron">
          1795 543 -51 callsubr
          -460 -1074 -104 callsubr
          -100 callsubr
        </CharString>
        <CharString name="Omacronacute">
          1795 1296 -16 callsubr
          -15 callgsubr
          -423 -1029 -104 callsubr
          -100 callsubr
        </CharString>
        <CharString name="Omacrongrave">
          1795 506 1 callsubr
          -16 callgsubr
          -423 -1029 -104 callsubr
          -100 callsubr
        </CharString>
        <CharString name="Omegagreek">
          1659 79 hmoveto
          674 437 hlineto
          -151 65 -73 132 247 vvcurveto
          287 125 239 callsubr
          -84 -117 -139 -66 vhcurveto
          -433 671 vlineto
          50 437 rlineto
          -114 hlineto
          -62 -137 -191 -45 -190 -9 rrcurveto
          84 vlineto
          277 100 callgsubr
          -519 -263 95 callgsubr
          -196 9 -185 44 -64 138 rrcurveto
          -113 hlineto
          endchar
        </CharString>
        <CharString name="Omegatonosgreek">
          1965 384 hmoveto
          674 437 hlineto
          -150 65 -73 132 247 vvcurveto
          287 124 239 callsubr
          -83 -117 -140 -66 vhcurveto
          -433 672 vlineto
          49 437 rlineto
          -114 hlineto
          -62 -137 -191 -45 -189 -9 rrcurveto
          84 vlineto
          276 100 callgsubr
          -518 -264 95 callgsubr
          -195 9 -186 44 -63 138 rrcurveto
          -114 hlineto
          -137 581 34 callsubr
        </CharString>
        <CharString name="Omicrongreek">
          16 callsubr
          80 callsubr
          -100 callsubr
        </CharString>
        <CharString name="Omicrontonosgreek">
          2022 310 718 rmoveto
          -448 329 -304 485 492 323 326 434 448 -330 304 -484 -493 -322 -326 -434 vhcurveto
          -112 300 rmoveto
          242 410 rlineto
          16 -381 vlineto
          -59 -426 rlineto
          845 -282 rmoveto
          329 84 223 194 49 callsubr
          -84 -223 -193 -178 -103 245 335 vhcurveto
          endchar
        </CharString>
        <CharString name="Oogonek">
          16 callsubr
          218 callsubr
        </CharString>
        <CharString name="Oogonekmacron">
          1795 543 -51 callsubr
          -460 -1074 rmoveto
          218 callsubr
        </CharString>
        <CharString name="Oslash">
          16 callsubr
          197 callsubr
        </CharString>
        <CharString name="Oslashacute">
          1795 888 -94 callsubr
          -81 callsubr
          -627 -832 rmoveto
          197 callsubr
        </CharString>
        <CharString name="Otilde">
          1795 1054 94 callsubr
          -163 hlineto
          -92 -1 -16 -38 -46 hhcurveto
          -28 -23 13 25 -38 hvcurveto
          -33 21 rlineto
          44 -67 -56 20 19 callgsubr
          -971 -814 -104 callsubr
          -100 callsubr
        </CharString>
        <CharString name="Otildeacute">
          1795 1296 -16 callsubr
          552 -271 -58 callsubr
          -80 callgsubr
          8 10 130 callsubr
          -975 -833 -104 callsubr
          -100 callsubr
        </CharString>
        <CharString name="Otildedieresis">
          1795 708 156 callsubr
          -22 -82 callgsubr
          428 hmoveto
          79 62 48 70 70 -62 49 -79 hvcurveto
          -21 -82 callgsubr
          -35 -294 -58 callsubr
          -80 callgsubr
          8 10 130 callsubr
          -975 -833 -104 callsubr
          -100 callsubr
        </CharString>
        <CharString name="Otildemacron">
          1795 506 1882 55 callsubr
          552 -492 -58 callsubr
          -80 callgsubr
          8 10 130 callsubr
          -975 -833 -104 callsubr
          -100 callsubr
        </CharString>
        <CharString name="P">
          1624 1553 995 66 callsubr
        </CharString>
        <CharString name="Pacute">
          1624 809 -94 callsubr
          -40 callsubr
          921 -555 66 callsubr
        </CharString>
        <CharString name="Pdotaccent">
          1624 822 31 callsubr
          731 -544 66 callsubr
        </CharString>
        <CharString name="Pecyrillic">
          1826 1616 271 rmoveto
          902 vlineto
          87 20 21 137 21 vhcurveto
          142 -1719 40 callsubr
          -107 callsubr
          -106 callsubr
          -43 callsubr
          1009 433 -1009 vlineto
          -81 -18 -19 -123 -21 -39 callsubr
          -137 21 -20 21 87 vvcurveto
          endchar
        </CharString>
        <CharString name="Phigreek">
          2077 57 715 rmoveto
          -315 271 -156 481 -13 vhcurveto
          -12 -53 -38 -20 -111 -16 rrcurveto
          -142 780 142 vlineto
          -110 16 -39 20 -11 53 rrcurveto
          479 13 273 157 315 vvcurveto
          323 -307 152 -447 13 vhcurveto
          10 60 36 21 116 17 rrcurveto
          142 -780 -142 vlineto
          117 -17 36 -21 10 -60 rrcurveto
          -445 -13 -309 -153 -323 vvcurveto
          1476 8 rmoveto
          -210 -116 -99 -154 -20 vhcurveto
          648 vlineto
          170 -20 100 -102 -197 vvcurveto
          -989 hmoveto
          196 106 102 163 20 vhcurveto
          -647 vlineto
          -154 20 -115 98 211 vvcurveto
          endchar
        </CharString>
        <CharString name="Pigreek">
          1798 1588 271 rmoveto
          -28 callgsubr
          -1690 40 callsubr
          -107 callsubr
          -106 callsubr
          -43 callsubr
          1009 404 -1009 vlineto
          -81 -18 -19 -123 -21 -39 callsubr
          -136 21 -20 21 87 vvcurveto
          endchar
        </CharString>
        <CharString name="Psigreek">
          2029 1240 287 rmoveto
          160 vlineto
          375 23 160 144 58 352 rrcurveto
          28 170 19 114 29 32 101 8 rlinecurve
          142 vlineto
          6 -41 -80 6 -67 hhcurveto
          -215 -96 -77 -225 -37 hvcurveto
          -28 -171 -36 -212 -39 -99 -131 -32 rlinecurve
          552 vlineto
          86 19 18 122 18 vhcurveto
          142 -732 -142 vlineto
          122 -18 19 -18 -86 vvcurveto
          -552 vlineto
          -132 32 -39 99 -35 212 -28 171 rcurveline
          225 -37 -97 77 -215 hhcurveto
          -67 -80 -6 -6 -40 hvcurveto
          -142 vlineto
          101 -8 28 -32 19 -114 rrcurveto
          28 -170 58 -352 160 -143 376 -24 rlinecurve
          -160 46 callsubr
          780 -62 callsubr
          endchar
        </CharString>
        <CharString name="Q">
          16 callsubr
          -396 255 -282 392 -61 vhcurveto
          196 -194 rlineto
          -149 153 117 -48 187 hhcurveto
          131 135 23 49 105 hvcurveto
          132 vlineto
          -127 -8 -94 48 -173 149 -75 66 rcurveline
          267 123 160 251 305 vvcurveto
          448 -328 304 -483 -494 -324 -326 -434 vhcurveto
          536 18 rmoveto
          329 82 223 191 180 104 -245 -335 -329 -83 -223 -190 -181 -103 245 335 vhcurveto
          endchar
        </CharString>
        <CharString name="R">
          1615 1525 1042 24 callsubr
        </CharString>
        <CharString name="Racute">
          1615 774 -94 callsubr
          -81 callsubr
          929 -508 24 callsubr
        </CharString>
        <CharString name="Rcaron">
          1615 1025 -27 callsubr
          36 callsubr
          324 -842 24 callsubr
        </CharString>
        <CharString name="Rcommaaccent">
          172 callsubr
          -196 -1510 -64 callgsubr
          -82 -10 callsubr
          -56 callgsubr
          -53 -59 246 callsubr
        </CharString>
        <CharString name="Rdblgrave">
          1615 636 87 callsubr
          204 -62 callgsubr
          422 -508 24 callsubr
        </CharString>
        <CharString name="Rdotaccent">
          1615 786 -73 callgsubr
          739 -497 24 callsubr
        </CharString>
        <CharString name="Rdotbelow">
          172 callsubr
          -155 -1128 -67 callsubr
          103 callsubr
        </CharString>
        <CharString name="Rdotbelowmacron">
          1615 429 -51 callsubr
          1096 -750 rmoveto
          241 -2 -196 161 -438 hhcurveto
          -835 -87 callsubr
          -107 callsubr
          -106 callsubr
          -43 callsubr
          167 callsubr
          -155 -1128 -67 callsubr
          103 callsubr
        </CharString>
        <CharString name="Rhogreek">
          1624 1553 995 66 callsubr
        </CharString>
        <CharString name="Rinvertedbreve">
          1615 786 1922 rmoveto
          -243 -137 -131 -165 -24 1 -24 4 188 callsubr
          739 -880 24 callsubr
        </CharString>
        <CharString name="Rlinebelow">
          172 callsubr
          -524 -1410 -76 callsubr
        </CharString>
        <CharString name="S">
          1423 655 -34 119 callsubr
          endchar
        </CharString>
        <CharString name="Sacute">
          1423 743 -94 callsubr
          -81 callsubr
          90 -1584 119 callsubr
          endchar
        </CharString>
        <CharString name="Sacutedotaccent">
          1423 756 1793 rmoveto
          85 69 55 78 79 -69 55 -85 -85 -70 -55 -79 -78 69 -55 86 hvcurveto
          395 -172 93 callsubr
          294 -1568 119 callsubr
          endchar
        </CharString>
        <CharString name="Scaron">
          1423 995 -15 callsubr
          -37 callsubr
          5 callsubr
          -515 -1918 119 callsubr
          endchar
        </CharString>
        <CharString name="Scarondotaccent">
          1423 756 1816 rmoveto
          85 69 56 78 79 -69 54 -85 -85 -70 -54 -79 -78 69 -56 86 hvcurveto
          402 4 rmoveto
          -402 -88 -403 88 0 -117 357 -156 92 0 357 156 rlineto
          -504 -1737 119 callsubr
          endchar
        </CharString>
        <CharString name="Scedilla">
          1423 653 52 callsubr
          -12 callsubr
          55 50 rlineto
          325 27 257 153 301 vvcurveto
          224 -130 154 -293 86 vhcurveto
          -137 41 rlineto
          -135 40 -64 51 84 vvcurveto
          91 70 66 140 179 119 -105 -193 43 vhcurveto
          136 hlineto
          -9 381 rlineto
          220 callsubr
          98 -57 182 -45 193 -10 -83 -88 rcurveline
          12 callsubr
          38 -22 -41 -41 -40 -21 -61 -50 callgsubr
        </CharString>
        <CharString name="Schwa">
          1601 738 -34 rmoveto
          473 307 287 454 498 -317 272 -500 -227 -213 -37 -63 -98 hvcurveto
          -9 -417 rlineto
          136 hlineto
          222 63 110 105 195 hhcurveto
          210 120 -178 -368 12 hvcurveto
          -931 hlineto
          -7 -35 -7 -55 -51 vvcurveto
          -383 246 -251 437 vhcurveto
          -227 584 rmoveto
          9 0 8 7 vvcurveto
          486 hlineto
          -18 -293 -96 -124 -140 -1 rrcurveto
          -164 -68 172 222 hvcurveto
          endchar
        </CharString>
        <CharString name="Scircumflex">
          1423 559 62 callgsubr
          272 -1584 119 callsubr
          endchar
        </CharString>
        <CharString name="Scommaaccent">
          1423 655 -34 119 callsubr
          1 -460 -64 callgsubr
          -83 -25 -31 -34 hvcurveto
          -118 vlineto
          -56 callgsubr
          -53 -59 246 callsubr
        </CharString>
        <CharString name="Sdotaccent">
          1423 756 -68 callsubr
          109 callsubr
          -101 -1573 119 callsubr
          endchar
        </CharString>
        <CharString name="Sdotbelow">
          1423 655 -34 119 callsubr
          42 -78 -67 callsubr
          104 86 -68 callgsubr
        </CharString>
        <CharString name="Sdotbelowdotaccent">
          1423 756 -68 callsubr
          109 callsubr
          -101 -1573 119 callsubr
          42 -78 -67 callsubr
          104 86 -68 callgsubr
        </CharString>
        <CharString name="Shacyrillic">
          2649 2439 20 callsubr
          -784 -142 vlineto
          123 -21 18 -19 -81 vvcurveto
          158 callsubr
          -769 -142 vlineto
          123 -21 18 -19 -81 vvcurveto
          158 callsubr
          -784 40 callsubr
          -107 callsubr
          -106 callsubr
          2541 142 vlineto
          18 callsubr
          endchar
        </CharString>
        <CharString name="Shchacyrillic">
          2674 2641 172 rmoveto
          -202 1001 hlineto
          87 19 21 137 -75 callgsubr
          123 -21 18 -19 -81 vvcurveto
          158 callsubr
          -769 -142 vlineto
          123 -21 18 -19 -81 vvcurveto
          158 callsubr
          -784 40 callsubr
          -107 callsubr
          -106 callsubr
          2109 vlineto
          211 44 -31 -285 94 hvcurveto
          137 hlineto
          endchar
        </CharString>
        <CharString name="Sigmagreek">
          1345 1244 1444 rmoveto
          -1210 -136 hlineto
          462 -615 -462 -450 rlineto
          -243 1250 vlineto
          9 591 rlineto
          -162 hlineto
          -235 -58 -54 -36 -220 hhcurveto
          -439 hlineto
          534 467 0 36 -327 458 223 -6 241 -7 27 -41 58 -205 rlinecurve
          137 hlineto
          endchar
        </CharString>
        <CharString name="Softsigncyrillic">
          1592 1537 466 rmoveto
          274 -227 172 -388 vhcurveto
          -225 245 105 callsubr
          -808 40 callsubr
          -107 callsubr
          -106 callsubr
          876 -7 callgsubr
          -509 -7 37 callgsubr
        </CharString>
        <CharString name="T">
          -6 callsubr
          endchar
        </CharString>
        <CharString name="Taugreek">
          -6 callsubr
          endchar
        </CharString>
        <CharString name="Tbar">
          1494 203 662 rmoveto
          301 -376 hlineto
          -97 -22 -27 -144 -21 vhcurveto
          -142 59 callsubr
          376 301 156 -301 462 36 vlineto
          201 -6 40 -32 49 -229 rrcurveto
          136 hlineto
          -8 431 -1394 0 83 callsubr
          rrcurveto
          36 -462 -301 hlineto
          endchar
        </CharString>
        <CharString name="Tcaron">
          1494 986 -15 callsubr
          -219 145 -176 0 217 -334 355 0 217 334 rlineto
          283 -440 rmoveto
          -1394 hlineto
          83 callsubr
          154 callsubr
          59 callsubr
          142 callsubr
          endchar
        </CharString>
        <CharString name="Tcedilla">
          1494 703 -494 rmoveto
          -52 callgsubr
          87 80 rlineto
          315 142 hlineto
          -143 21 -22 27 97 vvcurveto
          142 callsubr
          -8 431 -1394 0 83 callsubr
          154 callsubr
          324 vlineto
          -113 -120 72 callsubr
          98 hhcurveto
          endchar
        </CharString>
        <CharString name="Tcircumflexbelow">
          -6 callsubr
          -925 -1495 -59 callsubr
          -47 callsubr
          48 callsubr
        </CharString>
        <CharString name="Tcommaaccent">
          -6 callsubr
          -746 -1507 -100 callgsubr
          -153 -100 -83 -10 callsubr
          106 callsubr
          -67 callgsubr
        </CharString>
        <CharString name="Tdotaccent">
          1494 747 -68 callsubr
          -104 -86 -74 -105 -105 85 -73 105 hvcurveto
          697 -95 rmoveto
          -1394 hlineto
          83 callsubr
          154 callsubr
          59 callsubr
          142 callsubr
          endchar
        </CharString>
        <CharString name="Tdotbelow">
          -6 callsubr
          -705 -1125 -53 callsubr
        </CharString>
        <CharString name="Tecyrillic">
          -6 callsubr
          endchar
        </CharString>
        <CharString name="Thetagreek">
          1813 902 -34 rmoveto
          501 329 326 434 448 -335 304 -487 -501 -329 -326 -434 -448 335 -304 487 hvcurveto
          10 164 rmoveto
          -218 -123 241 365 360 104 218 226 219 122 -240 -366 -364 -104 -214 -226 hvcurveto
          -244 322 rmoveto
          106 hlineto
          134 23 25 18 64 hhcurveto
          40 hlineto
          64 25 -18 -134 23 hvcurveto
          106 514 -106 hlineto
          -134 -23 -25 -18 -64 hhcurveto
          -40 hlineto
          -64 -25 18 134 -23 hvcurveto
          -106 hlineto
          endchar
        </CharString>
        <CharString name="Thorn">
          1593 1541 742 rmoveto
          284 -246 116 -411 vhcurveto
          -187 15 105 callsubr
          -808 40 callsubr
          -107 callsubr
          -106 callsubr
          -11 callsubr
          22 vlineto
          187 1 rlineto
          392 2 265 151 279 vvcurveto
          -510 -24 rmoveto
          -152 -100 -85 -175 -6 vhcurveto
          -59 -2 0 506 59 -2 rlineto
          187 -6 88 -104 -149 vvcurveto
          endchar
        </CharString>
        <CharString name="Tlinebelow">
          -6 callsubr
          -1075 -1407 -76 callsubr
        </CharString>
        <CharString name="Tsecyrillic">
          1851 1818 172 rmoveto
          -202 1001 hlineto
          104 callsubr
          123 -21 18 -19 -82 vvcurveto
          -1008 -433 1008 -3 callsubr
          -107 callsubr
          -106 callsubr
          1287 vlineto
          211 43 -31 -285 94 hvcurveto
          137 hlineto
          endchar
        </CharString>
        <CharString name="Tshecyrillic">
          1988 225 callsubr
          315 vlineto
          22 35 61 14 68 hhcurveto
          136 77 -72 -156 hvcurveto
          -394 630 142 vlineto
          -125 21 -18 19 81 vvcurveto
          154 vlineto
          313 -208 119 -284 -1 vhcurveto
          -172 -129 -39 -41 -71 hvcurveto
          509 113 callgsubr
        </CharString>
        <CharString name="U">
          1644 181 1181 -88 callsubr
        </CharString>
        <CharString name="Uacute">
          1644 887 -94 callsubr
          -463 vlineto
          -120 -334 rlineto
          -529 -369 -88 callsubr
        </CharString>
        <CharString name="Ubreve">
          1644 900 84 callsubr
          -91 callgsubr
          4 callsubr
          -719 -380 -88 callsubr
        </CharString>
        <CharString name="Ubrevecyrillic">
          1574 873 22 callgsubr
          -44 hhcurveto
          -43 33 callgsubr
          -639 -1381 202 callsubr
        </CharString>
        <CharString name="Ucaron">
          1644 1139 -15 callsubr
          -218 145 -177 0 -97 callgsubr
          -1134 -703 -88 callsubr
        </CharString>
        <CharString name="Ucircumflex">
          1644 703 -50 callsubr
          145 callsubr
          -347 -369 -88 callsubr
        </CharString>
        <CharString name="Ucircumflexbelow">
          114 callsubr
          472 -1663 -59 callsubr
          -47 callsubr
          47 callsubr
        </CharString>
        <CharString name="Ucyrillic">
          1574 234 162 202 callsubr
        </CharString>
        <CharString name="Udblgrave">
          1644 750 87 callsubr
          203 -62 callgsubr
          -1035 -369 -88 callsubr
        </CharString>
        <CharString name="Udieresis">
          1644 698 73 callsubr
          61 callsubr
          -921 -373 -88 callsubr
        </CharString>
        <CharString name="Udieresisacute">
          1644 1295 -16 callsubr
          202 -274 44 callsubr
          -42 callsubr
          427 82 callsubr
          -911 -367 -88 callsubr
        </CharString>
        <CharString name="Udieresisbelow">
          114 callsubr
          437 -1649 rmoveto
          153 callsubr
          80 callgsubr
        </CharString>
        <CharString name="Udieresiscaron">
          1644 1293 -3 callgsubr
          427 82 callsubr
          -911 -367 -88 callsubr
        </CharString>
        <CharString name="Udieresisgrave">
          1644 505 1 callsubr
          202 -557 44 callsubr
          -42 callsubr
          427 82 callsubr
          -911 -367 -88 callsubr
        </CharString>
        <CharString name="Udieresismacron">
          1644 505 140 callsubr
          -42 callsubr
          427 82 callsubr
          -911 -367 -88 callsubr
        </CharString>
        <CharString name="Udotbelow">
          114 callsubr
          692 -1293 -53 callsubr
        </CharString>
        <CharString name="Ugrave">
          1644 953 150 callsubr
          -363 -690 -88 callsubr
        </CharString>
        <CharString name="Uhookabove">
          1644 946 101 callsubr
          81 callsubr
          -85 callgsubr
          -765 -747 -88 callsubr
        </CharString>
        <CharString name="Uhorn">
          1816 182 554 rmoveto
          -375 277 -213 201 callsubr
          endchar
        </CharString>
        <CharString name="Uhornacute">
          1816 890 -94 callsubr
          -81 callsubr
          -530 -996 rmoveto
          -375 277 -213 201 callsubr
          endchar
        </CharString>
        <CharString name="Uhorndotbelow">
          1816 182 554 rmoveto
          -375 277 -213 201 callsubr
          653 -1287 -53 callsubr
        </CharString>
        <CharString name="Uhorngrave">
          1816 956 1550 rmoveto
          177 hlineto
          -105 334 rlineto
          -482 -13 hlineto
          -364 -1317 rmoveto
          -375 277 -213 201 callsubr
          endchar
        </CharString>
        <CharString name="Uhornhookabove">
          1816 948 1928 rmoveto
          -132 -98 -49 -47 -52 hvcurveto
          -100 vlineto
          16 28 17 callgsubr
          -766 -1374 rmoveto
          -375 277 -213 201 callsubr
          endchar
        </CharString>
        <CharString name="Uhorntilde">
          1816 1056 94 callsubr
          -92 callgsubr
          183 callsubr
          -874 -978 rmoveto
          -375 277 -213 201 callsubr
          endchar
        </CharString>
        <CharString name="Uhungarumlaut">
          1644 640 1884 117 callgsubr
          -1310 -703 -88 callsubr
        </CharString>
        <CharString name="Uinvertedbreve">
          1644 900 182 callsubr
          -89 callgsubr
          155 callsubr
          -719 -741 -88 callsubr
        </CharString>
        <CharString name="Umacron">
          1644 542 1585 rmoveto
          716 207 -716 hlineto
          -361 -611 -88 callsubr
        </CharString>
        <CharString name="Umacrondieresis">
          1644 707 156 callsubr
          -19 callgsubr
          427 hmoveto
          79 62 48 70 70 -62 49 -79 hvcurveto
          -21 -82 callgsubr
          -558 -259 rmoveto
          732 161 -732 hlineto
          -353 -566 -88 callsubr
        </CharString>
        <CharString name="Uogonek">
          1644 865 -72 callgsubr
          54 hvcurveto
          -23 callgsubr
          64 105 31 4 27 9 21 hvcurveto
          299 55 182 224 3 322 4 598 rcurveline
          83 15 callsubr
          -499 -142 vlineto
          137 -21 19 -21 -88 vvcurveto
          4 -551 rlineto
          7 callgsubr
          -627 vlineto
          -354 248 -210 337 -22 vhcurveto
          -88 -58 -69 -93 -97 vvcurveto
          -130 109 -84 147 vhcurveto
          endchar
        </CharString>
        <CharString name="Upsilondieresisgreek">
          1547 683 129 callsubr
          -871 -433 -64 callsubr
        </CharString>
        <CharString name="Upsilongreek">
          1547 217 1121 -64 callsubr
        </CharString>
        <CharString name="Upsilontonosgreek">
          2044 713 1121 rmoveto
          320 -17 callgsubr
          816 -62 callsubr
          298 vlineto
          322 563 67 114 22 23 118 17 rlinecurve
          142 -512 -142 vlineto
          142 -20 callgsubr
          -193 360 -69 128 12 29 143 17 rlinecurve
          142 -831 -142 vlineto
          113 -17 29 -27 79 -137 rrcurveto
          -515 -103 34 callsubr
        </CharString>
        <CharString name="Uring">
          1644 578 52 callgsubr
          -633 -582 -88 callsubr
        </CharString>
        <CharString name="Utilde">
          1644 1053 178 callsubr
          19 callgsubr
          -872 -351 -88 callsubr
        </CharString>
        <CharString name="Utildeacute">
          1644 1295 -16 callsubr
          552 -271 -58 callsubr
          9 callsubr
          8 10 8 callsubr
          -23 callsubr
          25 22 47 2 callsubr
          -876 -370 -88 callsubr
        </CharString>
        <CharString name="Utildebelow">
          114 callsubr
          838 -1649 -101 callgsubr
          160 callsubr
          -32 21 rlineto
          42 -63 135 callsubr
          27 24 85 callsubr
        </CharString>
        <CharString name="V">
          1601 204 1097 rmoveto
          210 callsubr
          endchar
        </CharString>
        <CharString name="Vdotbelow">
          1601 204 1097 rmoveto
          210 callsubr
          614 -1209 -67 callsubr
          103 callsubr
        </CharString>
        <CharString name="Vecyrillic">
          1638 1567 436 122 callsubr
        </CharString>
        <CharString name="Vtilde">
          1601 1025 94 callsubr
          -92 callgsubr
          183 callsubr
          -821 -435 rmoveto
          210 callsubr
          endchar
        </CharString>
        <CharString name="W">
          2437 194 1097 23 callsubr
        </CharString>
        <CharString name="Wacute">
          2437 1353 -94 callsubr
          -463 vlineto
          -120 -334 rlineto
          -982 -453 23 callsubr
        </CharString>
        <CharString name="Wcircumflex">
          2437 1169 -50 callsubr
          219 -145 176 0 -32 callgsubr
          -799 -453 23 callsubr
        </CharString>
        <CharString name="Wdieresis">
          2437 1164 73 callsubr
          61 callsubr
          -1374 -457 23 callsubr
        </CharString>
        <CharString name="Wdotaccent">
          2437 1366 -68 callsubr
          108 callsubr
          -1172 -442 23 callsubr
        </CharString>
        <CharString name="Wdotbelow">
          2437 194 1097 rmoveto
          345 -1097 407 0 277 884 260 -884 421 0 339 1096 51 166 29 23 119 17 rlinecurve
          142 -523 -99 callgsubr
          -190 -716 -196 701 -44 160 11 26 147 23 rlinecurve
          142 -787 -99 callgsubr
          10 callgsubr
          1031 -1209 -53 callsubr
        </CharString>
        <CharString name="Wgrave">
          2437 1419 150 callsubr
          -816 -774 23 callsubr
        </CharString>
        <CharString name="X">
          1576 301 353 62 callsubr
        </CharString>
        <CharString name="Xdieresis">
          1576 705 1554 rmoveto
          -106 callgsubr
          -94 -76 60 callsubr
          -107 callgsubr
          -809 -1201 62 callsubr
        </CharString>
        <CharString name="Xdotaccent">
          1576 907 -73 callgsubr
          -606 -1186 62 callsubr
        </CharString>
        <CharString name="Xigreek">
          1433 1351 1444 rmoveto
          -1269 hlineto
          114 callgsubr
          405 hlineto
          224 45 -11 -210 50 hvcurveto
          136 hlineto
          -712 -273 rmoveto
          109 hlineto
          102 36 -36 -136 27 hvcurveto
          128 522 -128 hlineto
          -137 -27 -36 -36 -102 hhcurveto
          -109 hlineto
          -102 -36 36 137 -27 hvcurveto
          -129 -522 129 hlineto
          136 27 36 36 102 hhcurveto
          703 -630 rmoveto
          111 callgsubr
          -409 hlineto
          -224 -50 20 236 -58 hvcurveto
          -135 hlineto
          23 -576 rlineto
          endchar
        </CharString>
        <CharString name="Xigreek.1">
          1433 1365 hmoveto
          111 callgsubr
          -142 310 hlineto
          96 -2 35 -38 26 -132 rrcurveto
          129 522 -129 hlineto
          -26 -133 -35 -38 -96 -2 rrcurveto
          317 140 vlineto
          225 44 -11 -210 50 hvcurveto
          136 hlineto
          -23 541 -1269 0 114 callgsubr
          142 -317 hlineto
          -97 2 -36 37 -26 134 rrcurveto
          -128 -522 128 hlineto
          26 133 36 37 97 2 rrcurveto
          -310 -143 vlineto
          -224 -51 20 236 -57 hvcurveto
          -136 hlineto
          23 -576 rlineto
          endchar
        </CharString>
        <CharString name="Y">
          1547 217 1121 -64 callsubr
        </CharString>
        <CharString name="Yacute">
          1547 872 -94 callsubr
          -40 callsubr
          -478 -429 -64 callsubr
        </CharString>
        <CharString name="Ycircumflex">
          1547 688 -50 callsubr
          37 callsubr
          53 callsubr
          -296 -429 -64 callsubr
        </CharString>
        <CharString name="Ydieresis">
          1547 683 129 callsubr
          -871 -433 -64 callsubr
        </CharString>
        <CharString name="Ydotaccent">
          1547 885 31 callsubr
          -668 -418 -64 callsubr
        </CharString>
        <CharString name="Ydotbelow">
          1547 217 1121 rmoveto
          319 -17 callgsubr
          59 callsubr
          298 vlineto
          322 563 66 114 23 23 118 17 rlinecurve
          142 -513 -142 vlineto
          143 -20 callgsubr
          23 callgsubr
          582 -1233 -53 callsubr
        </CharString>
        <CharString name="Yericyrillic">
          2403 1537 466 rmoveto
          274 -227 172 -388 vhcurveto
          -225 245 105 callsubr
          -808 40 callsubr
          -107 callsubr
          -106 callsubr
          876 -7 callgsubr
          656 -195 rmoveto
          902 vlineto
          87 20 21 137 21 vhcurveto
          142 -800 -142 vlineto
          137 -21 20 -21 -87 vvcurveto
          -902 vlineto
          -87 -20 -21 -106 callsubr
          800 142 vlineto
          -137 21 -20 21 87 vvcurveto
          -1165 188 37 callgsubr
        </CharString>
        <CharString name="Ygrave">
          1547 938 149 callsubr
          -312 -750 -64 callsubr
        </CharString>
        <CharString name="Yhookabove">
          1547 931 101 callsubr
          81 callsubr
          73 62 83 vvcurveto
          99 -97 66 -137 vhcurveto
          -714 -807 -64 callsubr
        </CharString>
        <CharString name="Yicyrillic">
          907 251 1554 rmoveto
          -106 callgsubr
          -94 -76 60 callsubr
          -107 callgsubr
          41 -1283 -80 callsubr
          -103 callsubr
          -107 callsubr
          -106 callsubr
          -83 callsubr
        </CharString>
        <CharString name="Ymacron">
          1547 528 -51 callsubr
          -311 -671 -64 callsubr
        </CharString>
        <CharString name="Ytilde">
          1547 1039 228 callsubr
          45 hhcurveto
          29 23 -13 -25 38 hvcurveto
          -77 callgsubr
          -822 -411 -64 callsubr
        </CharString>
        <CharString name="Z">
          1414 1326 hmoveto
          8 483 rlineto
          -136 hlineto
          29 callsubr
        </CharString>
        <CharString name="Zacute">
          1414 720 -94 callsubr
          -81 callsubr
          784 -1550 56 callsubr
          29 callsubr
        </CharString>
        <CharString name="Zcaron">
          1414 972 -15 callsubr
          -37 callsubr
          5 callsubr
          179 -1884 56 callsubr
          29 callsubr
        </CharString>
        <CharString name="Zcircumflex">
          1414 536 -50 callsubr
          218 -145 177 0 -32 callgsubr
          966 -1550 56 callsubr
          29 callsubr
        </CharString>
        <CharString name="Zdotaccent">
          1414 733 -68 callsubr
          -104 -86 -74 -105 -105 85 -73 105 hvcurveto
          593 -1539 56 callsubr
          29 callsubr
        </CharString>
        <CharString name="Zdotbelow">
          1414 1326 hmoveto
          8 483 rlineto
          -136 hlineto
          -63 96 callsubr
          698 102 callsubr
          194 callsubr
          649 -114 rmoveto
          -105 -84 -73 -105 -105 84 -74 105 104 86 74 105 105 -85 73 -105 hvcurveto
          endchar
        </CharString>
        <CharString name="Zecyrillic">
          1400 1330 427 rmoveto
          215 -180 124 -253 22 vhcurveto
          221 36 176 109 187 vvcurveto
          233 -242 125 -426 -199 -200 -50 -57 -102 vhcurveto
          -8 -381 rlineto
          136 hlineto
          209 48 99 89 161 hhcurveto
          140 87 -83 -138 -155 -109 -90 -166 hvcurveto
          -114 -172 114 hlineto
          190 112 -88 -156 -163 -104 -87 -152 -149 -122 78 223 -49 hvcurveto
          -136 hlineto
          8 -380 rlineto
          -63 118 205 -48 190 hhcurveto
          392 314 168 293 hvcurveto
          endchar
        </CharString>
        <CharString name="Zetagreek">
          1414 1326 hmoveto
          8 483 rlineto
          -136 hlineto
          29 callsubr
        </CharString>
        <CharString name="Zhecyrillic">
          2328 504 hmoveto
          335 641 rlineto
          87 -378 hlineto
          -85 -18 -18 -125 -18 vhcurveto
          -142 736 142 vlineto
          -124 18 -19 18 85 vvcurveto
          378 88 vlineto
          335 -641 rlineto
          533 136 hlineto
          -68 29 -25 34 -129 234 rrcurveto
          -302 551 76 77 186 189 55 29 149 23 rlinecurve
          142 -609 -142 vlineto
          126 -16 25 -39 -85 -105 -271 -329 rcurveline
          -84 368 hlineto
          85 19 18 124 18 vhcurveto
          142 -736 -142 vlineto
          125 -18 18 -18 -85 vvcurveto
          -368 -83 vlineto
          -271 329 -86 105 26 39 125 16 rlinecurve
          142 -608 -142 vlineto
          148 -23 41 -24 183 -191 rrcurveto
          104 -108 -287 -523 -129 -234 -26 -34 -67 -29 rlinecurve
          -136 vlineto
          endchar
        </CharString>
        <CharString name="Zlinebelow">
          1414 1326 hmoveto
          8 483 rlineto
          -136 hlineto
          -63 96 callsubr
          698 102 callsubr
          194 callsubr
          280 -396 rmoveto
          739 208 -739 hlineto
          endchar
        </CharString>
        <CharString name="a">
          1362 379 -26 -98 callsubr
        </CharString>
        <CharString name="a.dnum">
          898 254 -16 rmoveto
          113 83 44 68 40 hvcurveto
          -64 22 86 -44 93 hhcurveto
          70 57 18 25 34 hvcurveto
          89 vlineto
          -1 -6 -9 0 -10 hhcurveto
          -29 -25 19 43 hvcurveto
          199 vlineto
          182 -127 75 -220 -216 -122 -84 -95 -63 49 -40 75 76 51 52 65 17 -4 16 -7 15 vhcurveto
          8 8 1 8 hhcurveto
          82 45 -40 -85 hvcurveto
          -20 vlineto
          -131 -26 rlineto
          -222 -45 -66 -79 -87 vvcurveto
          -87 70 -68 124 vhcurveto
          94 204 rmoveto
          42 30 27 83 17 vhcurveto
          18 3 rlineto
          -120 vlineto
          -12 -10 -25 -12 -31 hhcurveto
          -34 -31 18 37 hvcurveto
          endchar
        </CharString>
        <CharString name="a.numr">
          898 254 586 47 callgsubr
          -1 -10 hhcurveto
          -29 -25 19 65 callgsubr
          -40 75 76 51 52 81 callgsubr
          -20 vlineto
          -131 -26 rlineto
          -222 -45 -66 -78 -87 vvcurveto
          -88 70 -67 31 callgsubr
          18 37 hvcurveto
          endchar
        </CharString>
        <CharString name="a.sups">
          898 254 753 47 callgsubr
          0 -10 hhcurveto
          -29 -25 18 65 callgsubr
          -39 75 76 51 51 81 callgsubr
          -19 vlineto
          -131 -27 rlineto
          -222 -45 -66 -78 -87 vvcurveto
          -87 70 -68 31 callgsubr
          19 36 hvcurveto
          endchar
        </CharString>
        <CharString name="aacute">
          1362 596 -93 callsubr
          -49 callsubr
          -37 -1213 -98 callsubr
        </CharString>
        <CharString name="abreve">
          1362 628 30 callsubr
          -61 callgsubr
          -249 -1214 -98 callsubr
        </CharString>
        <CharString name="abreveacute">
          1362 1013 -38 callsubr
          51 callsubr
          386 -358 -22 callsubr
          -164 hlineto
          -67 -6 -88 -44 -127 hhcurveto
          -127 -89 45 66 -6 hvcurveto
          -164 hlineto
          -204 -7 153 -120 240 hhcurveto
          -249 -1161 -98 callsubr
        </CharString>
        <CharString name="abrevecyrillic">
          1362 629 20 callgsubr
          -72 76 -92 104 callgsubr
          -250 -1205 -98 callsubr
        </CharString>
        <CharString name="abrevedotbelow">
          1362 628 30 callsubr
          -61 callgsubr
          -249 -1214 rmoveto
          180 133 73 109 66 hvcurveto
          63 callsubr
          199 -788 -63 callsubr
        </CharString>
        <CharString name="abrevegrave">
          1362 242 -46 callgsubr
          386 -691 -22 callsubr
          -164 hlineto
          -67 -6 -88 -44 -127 hhcurveto
          -127 -89 45 66 -6 hvcurveto
          -164 hlineto
          -204 -7 153 -120 240 hhcurveto
          -249 -1161 -98 callsubr
        </CharString>
        <CharString name="abrevehookabove">
          1362 616 91 callgsubr
          52 hhcurveto
          91 41 92 callsubr
          164 33 92 68 108 vvcurveto
          108 -106 72 -159 vhcurveto
          12 -687 -22 callsubr
          -164 hlineto
          -67 -6 -88 -44 -127 hhcurveto
          -127 -89 45 66 -6 hvcurveto
          -164 hlineto
          -204 -7 153 -120 240 hhcurveto
          -249 -1161 -98 callsubr
        </CharString>
        <CharString name="abrevetilde">
          1362 781 -34 callgsubr
          3 callgsubr
          -153 -383 -22 callsubr
          -164 hlineto
          -67 -6 -88 -44 -127 hhcurveto
          -127 -89 45 66 -6 hvcurveto
          -164 hlineto
          -204 -7 153 -120 240 hhcurveto
          -249 -1161 -98 callsubr
        </CharString>
        <CharString name="acaron">
          1362 864 26 callsubr
          -665 -1639 -98 callsubr
        </CharString>
        <CharString name="acircumflex">
          1362 391 -33 callsubr
          167 -1213 -98 callsubr
        </CharString>
        <CharString name="acircumflexacute">
          1362 1013 -38 callsubr
          51 callsubr
          2 -348 rmoveto
          -30 callsubr
          135 -1308 -98 callsubr
        </CharString>
        <CharString name="acircumflexdotbelow">
          1362 391 -33 callsubr
          167 -1213 rmoveto
          180 133 73 109 66 hvcurveto
          63 callsubr
          199 -788 -63 callsubr
        </CharString>
        <CharString name="acircumflexgrave">
          1362 242 -46 callgsubr
          2 -681 rmoveto
          -30 callsubr
          135 -1308 -98 callsubr
        </CharString>
        <CharString name="acircumflexhookabove">
          1362 922 118 callgsubr
          66 14 52 hhcurveto
          91 40 92 callsubr
          165 162 callsubr
          -678 -677 rmoveto
          -30 callsubr
          135 -1308 -98 callsubr
        </CharString>
        <CharString name="acircumflextilde">
          1362 781 -34 callgsubr
          3 callgsubr
          -537 -373 rmoveto
          -30 callsubr
          135 -1308 -98 callsubr
        </CharString>
        <CharString name="acute">
          1024 480 -93 callsubr
          -72 callsubr
          endchar
        </CharString>
        <CharString name="acutecmb">
          0 -32 -93 callsubr
          -72 callsubr
          endchar
        </CharString>
        <CharString name="acutecmb.short">
          0 -13 1158 rmoveto
          406 321 rlineto
          13 -40 callsubr
          endchar
        </CharString>
        <CharString name="acutedotaccentcmb">
          0 1465 vmoveto
          85 callgsubr
          97 callgsubr
          endchar
        </CharString>
        <CharString name="acutedotaccentcmb.short">
          0 1793 vmoveto
          86 68 55 78 79 -68 55 -86 -85 -69 -55 -79 -78 68 -55 86 hvcurveto
          395 -172 93 callsubr
          endchar
        </CharString>
        <CharString name="acyrillic">
          1362 379 -26 -98 callsubr
        </CharString>
        <CharString name="adblgrave">
          1362 420 189 callsubr
          -552 -1213 -98 callsubr
        </CharString>
        <CharString name="adieresis">
          1362 354 -2 callsubr
          -522 -1222 -98 callsubr
        </CharString>
        <CharString name="adieresismacron">
          1362 242 -58 callgsubr
          66 58 82 83 -66 -90 callsubr
          -17 callsubr
          57 -82 hvcurveto
          -22 hlineto
          -83 -66 -57 -83 -82 66 -58 83 hvcurveto
          -452 -1186 -98 callsubr
        </CharString>
        <CharString name="adotaccent">
          1362 628 33 callsubr
          -36 callgsubr
          -249 -1210 -98 callsubr
        </CharString>
        <CharString name="adotbelow">
          -53 callgsubr
          63 callsubr
          199 -788 -63 callsubr
        </CharString>
        <CharString name="adotmacron">
          1362 242 1545 rmoveto
          771 189 -771 hlineto
          58 callgsubr
          -249 -1175 -98 callsubr
        </CharString>
        <CharString name="ae">
          1830 397 -26 163 callsubr
        </CharString>
        <CharString name="aeacute">
          1830 925 -93 callsubr
          -70 callgsubr
          -349 -1213 163 callsubr
        </CharString>
        <CharString name="aemacron">
          1830 560 7 callsubr
          -163 -1518 163 callsubr
        </CharString>
        <CharString name="agrave">
          1362 663 0 callsubr
          148 -1624 -98 callsubr
        </CharString>
        <CharString name="ahookabove">
          1362 690 1622 rmoveto
          -152 -112 115 callgsubr
          -311 -1648 -98 callsubr
        </CharString>
        <CharString name="ainvertedbreve">
          1362 628 -47 callgsubr
          3 -19 hvcurveto
          165 193 callsubr
          -249 -1638 -98 callsubr
        </CharString>
        <CharString name="alphagreek">
          1468 492 -24 198 callsubr
        </CharString>
        <CharString name="alphatonosgreek">
          1468 797 1187 rmoveto
          242 411 rlineto
          15 -381 vlineto
          -59 -426 rlineto
          -107 -1211 198 callsubr
        </CharString>
        <CharString name="amacron">
          1362 230 -93 callgsubr
          149 -1518 -98 callsubr
        </CharString>
        <CharString name="ampersand">
          1790 572 -30 rmoveto
          187 131 72 122 137 hvcurveto
          162 -164 rlineto
          553 136 hlineto
          -73 27 -68 46 -217 214 rrcurveto
          -51 51 107 113 154 161 45 27 103 14 rlinecurve
          142 -488 -142 vlineto
          109 -18 10 -25 -78 -107 rrcurveto
          -55 -74 -286 282 rlineto
          203 66 119 108 138 vvcurveto
          179 -157 140 -289 -338 -195 -183 -214 -105 43 -89 97 -117 vhcurveto
          -239 -68 -131 -144 -193 vvcurveto
          -235 208 -160 297 vhcurveto
          144 1206 rmoveto
          73 53 39 61 73 46 -58 -91 -4 vhcurveto
          -4 -70 -24 -70 -63 -51 rrcurveto
          -104 110 -34 55 63 vvcurveto
          -233 -661 rmoveto
          60 15 48 37 38 vhcurveto
          39 -41 44 -46 50 -50 271 -273 rcurveline
          -20 -43 -44 -8 -48 hhcurveto
          -181 -140 118 174 hvcurveto
          endchar
        </CharString>
        <CharString name="anoteleiagreek">
          648 324 596 rmoveto
          16 callgsubr
          endchar
        </CharString>
        <CharString name="aogonek">
          -53 callgsubr
          34 -92 123 -66 134 -6 rrcurveto
          -200 -100 -63 -94 -100 vvcurveto
          -118 109 -74 149 104 116 39 67 58 89 callgsubr
          101 85 hvcurveto
          136 vlineto
          -3 -11 -14 -1 -17 hhcurveto
          -50 -41 32 77 hvcurveto
          375 vlineto
          291 -201 122 -344 -339 -199 -135 -156 -100 77 -64 116 117 81 79 101 33 -10 31 -17 26 vhcurveto
          2 19 19 2 20 hhcurveto
          136 75 -65 -154 hvcurveto
          -44 vlineto
          -215 -45 rlineto
          -352 -73 -108 -126 -152 vvcurveto
          -149 115 -114 200 vhcurveto
          125 335 rmoveto
          79 53 51 140 31 vhcurveto
          42 9 rlineto
          -225 vlineto
          -32 -19 -45 -25 -56 hhcurveto
          -62 -53 39 73 hvcurveto
          endchar
        </CharString>
        <CharString name="approxequal">
          1376 950 927 101 callgsubr
          -342 hvcurveto
          264 hlineto
          147 1 38 57 242 callsubr
          107 callgsubr
          -551 vmoveto
          -133 -194 209 -210 hhcurveto
          -232 -136 -167 94 callgsubr
          165 344 hvcurveto
          -264 hlineto
          -146 -1 -38 -59 -78 hhcurveto
          endchar
        </CharString>
        <CharString name="aring">
          1362 269 1400 rmoveto
          -144 151 -96 208 208 150 96 144 145 -150 96 -208 -208 -151 -96 -145 vhcurveto
          263 hmoveto
          64 43 43 53 52 43 -43 -64 -63 -43 -43 -52 -53 -43 43 63 vhcurveto
          -153 -1426 -98 callsubr
        </CharString>
        <CharString name="aringacute">
          1362 1013 1600 rmoveto
          230 vlineto
          51 callsubr
          433 74 callgsubr
          -95 hlineto
          -174 -117 -71 -108 -108 117 -71 174 hvcurveto
          66 123 rmoveto
          -37 hlineto
          -48 -27 22 34 34 28 22 47 hvcurveto
          37 hlineto
          47 28 -22 -34 -34 -28 -22 -47 hvcurveto
          -267 -1281 -98 callsubr
        </CharString>
        <CharString name="aringbelow">
          -53 callgsubr
          63 callsubr
          -159 -600 rmoveto
          -129 150 -83 208 208 151 83 129 129 -151 84 -208 -208 -150 -84 -129 vhcurveto
          263 hmoveto
          49 43 34 52 53 43 -34 -49 -49 -43 -34 -53 -52 -43 34 49 vhcurveto
          endchar
        </CharString>
        <CharString name="asciicircum">
          1376 607 1444 rmoveto
          -518 -606 202 -189 392 456 395 -456 210 189 -515 606 rlineto
          endchar
        </CharString>
        <CharString name="asciitilde">
          1376 950 632 101 callgsubr
          94 callgsubr
          107 callgsubr
          endchar
        </CharString>
        <CharString name="asterisk">
          996 472 1068 rmoveto
          50 hlineto
          76 194 rlineto
          134 55 -79 83 -76 hhcurveto
          -79 -77 -82 -135 56 hvcurveto
          124 -194 rmoveto
          26 -44 206 32 rlineto
          144 18 32 111 -39 66 -39 69 -110 26 -89 -117 rrcurveto
          -206 -205 rmoveto
          25 44 -130 161 rlineto
          -88 117 -112 -28 -39 -67 -39 -68 32 -108 146 -19 rrcurveto
          230 -77 rmoveto
          -25 45 -205 -33 rlineto
          -144 -18 -32 -111 37 -66 40 -69 110 -26 89 117 rrcurveto
          206 206 rmoveto
          -26 -45 131 -161 rlineto
          88 -117 113 28 37 67 41 68 -33 108 -145 19 rrcurveto
          -232 -12 rmoveto
          -50 hlineto
          -74 -194 rlineto
          -135 -56 80 -82 76 hhcurveto
          79 77 82 135 -56 hvcurveto
          endchar
        </CharString>
        <CharString name="at">
          2168 558 407 rmoveto
          -229 98 -120 152 137 111 78 137 70 vhcurveto
          -148 13 97 -97 209 hhcurveto
          365 285 281 424 454 -375 316 -571 -691 -382 -534 -515 -554 396 -323 486 196 185 61 68 80 hvcurveto
          -2 142 rlineto
          -69 -128 -131 -19 -166 hhcurveto
          -411 -296 257 438 429 315 437 549 485 253 -260 -361 -270 -147 -174 -162 -81 -9 37 104 21 hvcurveto
          130 607 -267 0 -106 -112 rlineto
          90 -40 -86 51 -118 hhcurveto
          -279 -185 -299 -327 hvcurveto
          393 16 rmoveto
          172 81 286 115 50 30 -42 -87 -16 vhcurveto
          -64 -299 rlineto
          -98 -20 -52 -59 -55 hhcurveto
          -44 -25 36 91 hvcurveto
          endchar
        </CharString>
        <CharString name="atilde">
          1362 785 126 callsubr
          -55 callgsubr
          39 vhcurveto
          33 -24 rlineto
          -46 68 59 -22 71 hhcurveto
          -406 -1226 -98 callsubr
        </CharString>
        <CharString name="austral">
          1592 202 350 rmoveto
          -60 -166 -24 -24 -122 -18 rrcurveto
          -142 531 142 vlineto
          -149 23 -21 30 53 156 rrcurveto
          5 16 493 0 6 -16 53 -157 -21 -29 -150 -23 rlinecurve
          -142 802 142 vlineto
          -124 18 -25 24 -60 163 -7 20 rcurveline
          216 108 -255 hlineto
          -60 165 rlineto
          315 108 -354 hlineto
          -252 696 -392 0 -253 -696 rlineto
          -351 -108 311 hlineto
          -60 -165 rlineto
          -251 -108 212 hlineto
          337 381 rmoveto
          118 348 117 -348 rlineto
          -328 -273 rmoveto
          56 165 308 0 56 -165 rlineto
          endchar
        </CharString>
        <CharString name="austral.tnum">
          1376 -7 464 rmoveto
          -107 163 vlineto
          -3 -10 -50 -166 -15 -27 -93 -12 rlinecurve
          -142 449 142 vlineto
          -125 16 -13 25 45 162 rrcurveto
          3 12 387 0 3 -12 44 -162 -12 -22 -133 -19 rlinecurve
          -142 738 142 vlineto
          -94 12 -15 26 -50 166 -3 11 rcurveline
          164 107 -197 hlineto
          -49 166 rlineto
          246 107 -279 hlineto
          -213 707 -406 0 -214 -707 rlineto
          -278 -107 245 hlineto
          -50 -166 rlineto
          273 273 rmoveto
          88 317 87 -317 rlineto
          -252 -273 rmoveto
          47 166 235 0 45 -166 rlineto
          endchar
        </CharString>
        <CharString name="b">
          -81 callgsubr
          117 callsubr
          endchar
        </CharString>
        <CharString name="backslash">
          855 506 -280 rmoveto
          341 hlineto
          -498 1860 rlineto
          -341 hlineto
          endchar
        </CharString>
        <CharString name="baht">
          1605 40 30 rmoveto
          742 -220 108 220 hlineto
          363 2 287 152 262 vvcurveto
          203 -162 132 -253 15 vhcurveto
          199 17 174 92 191 vvcurveto
          201 -214 116 -394 1 vhcurveto
          217 -108 -217 -742 40 callsubr
          -842 vlineto
          -87 -19 -21 -137 -21 vhcurveto
          614 655 rmoveto
          424 vlineto
          120 -2 rlineto
          6 -3 0 5 hhcurveto
          -422 vlineto
          244 217 rmoveto
          -109 -48 -66 -88 -27 vhcurveto
          389 vlineto
          88 -30 48 -63 -94 vvcurveto
          -372 -379 rmoveto
          128 -470 hlineto
          -8 0 0 0 hhcurveto
          -120 -2 rlineto
          405 243 rmoveto
          -118 -62 -75 -107 -32 vhcurveto
          441 vlineto
          110 -29 59 -77 -110 vvcurveto
          endchar
        </CharString>
        <CharString name="baht.tnum">
          1376 21 48 rmoveto
          652 -238 107 238 hlineto
          321 2 257 147 248 66 callgsubr
          191 -188 113 -351 2 vhcurveto
          237 -107 -237 -652 -142 vlineto
          124 -20 18 -20 -81 vvcurveto
          -822 -63 callgsubr
          559 637 rmoveto
          407 vlineto
          87 -2 6 -1 rlineto
          -404 -1 vlineto
          218 210 rmoveto
          -99 -38 -63 -72 -29 vhcurveto
          364 vlineto
          71 -29 39 -59 -85 vvcurveto
          -310 -372 rmoveto
          93 -452 hlineto
          -6 -1 -87 -2 rlineto
          343 230 rmoveto
          -108 -54 -70 -89 -31 vhcurveto
          419 vlineto
          92 -29 51 -70 -111 vvcurveto
          endchar
        </CharString>
        <CharString name="bar">
          855 257 -280 rmoveto
          341 1860 -341 hlineto
          endchar
        </CharString>
        <CharString name="bdotaccent">
          1416 369 1576 rmoveto
          123 100 86 124 124 -100 85 -123 -122 -100 -85 -124 -124 99 -86 123 hvcurveto
          979 -1035 rmoveto
          117 callsubr
          endchar
        </CharString>
        <CharString name="bdotbelow">
          -81 callgsubr
          117 callsubr
          -188 -988 -52 callsubr
          97 callsubr
        </CharString>
        <CharString name="becyrillic">
          1409 1341 511 rmoveto
          303 -217 201 -361 -227 -176 -94 -143 -91 vhcurveto
          -1 16 -1 18 18 vvcurveto
          157 83 128 297 24 vhcurveto
          143 11 372 29 91 112 15 270 rlinecurve
          -142 hlineto
          -21 -48 -42 -9 -238 -27 -262 -29 -173 -76 -107 -101 rrcurveto
          -139 -132 -77 -196 -324 vvcurveto
          -380 212 -265 418 351 293 202 335 vhcurveto
          -470 -9 rmoveto
          -250 -65 -95 -96 -102 -63 132 214 214 57 123 115 94 60 -128 -210 vhcurveto
          endchar
        </CharString>
        <CharString name="betagreek">
          1379 113 -460 rmoveto
          469 hlineto
          -6 204 -5 179 -4 156 rrcurveto
          -60 59 96 -44 127 hhcurveto
          233 224 158 290 276 -164 183 -208 31 hvcurveto
          162 13 147 99 170 vvcurveto
          195 -169 165 -357 -358 -246 -181 -413 vhcurveto
          437 91 rmoveto
          203 34 107 115 91 48 -78 -134 -142 -73 -66 -117 -8 vhcurveto
          -288 vlineto
          142 -5 90 -87 -162 vvcurveto
          -153 -83 -64 -92 -55 -57 23 38 -30 vhcurveto
          -11 463 -2 230 123 vvcurveto
          endchar
        </CharString>
        <CharString name="bitcoin">
          1574 40 30 rmoveto
          567 -219 108 219 139 hlineto
          11 11 0 10 hhcurveto
          -219 108 227 vlineto
          298 34 219 145 229 vvcurveto
          203 -163 132 -252 15 vhcurveto
          199 17 174 92 191 vvcurveto
          177 -166 111 -309 25 vhcurveto
          222 -108 -217 vlineto
          -10 -11 0 -11 hhcurveto
          -139 217 -108 -217 -567 -87 callsubr
          -842 vlineto
          -87 -19 -21 -137 -21 vhcurveto
          956 872 rmoveto
          -148 -88 -69 -155 vhcurveto
          -99 424 hlineto
          91 -2 rlineto
          160 -5 91 -71 -129 vvcurveto
          34 -608 rmoveto
          -156 -109 -80 -176 -5 vhcurveto
          -91 -2 rlineto
          472 99 vlineto
          177 100 -88 -141 hvcurveto
          endchar
        </CharString>
        <CharString name="bitcoin.tnum">
          1376 21 48 rmoveto
          481 -237 108 237 162 hlineto
          3 3 0 3 hhcurveto
          -237 107 243 vlineto
          269 31 201 140 220 66 callgsubr
          171 -149 108 -282 23 vhcurveto
          239 -107 -235 vlineto
          -3 -3 0 -3 hhcurveto
          -162 235 -108 -235 -481 -14 callgsubr
          -822 -63 callgsubr
          860 847 rmoveto
          -141 -79 -69 -139 vhcurveto
          -74 407 hlineto
          69 -2 rlineto
          140 -4 83 -68 -123 vvcurveto
          33 -602 rmoveto
          -144 -100 -74 -156 -5 vhcurveto
          -69 -2 rlineto
          455 74 vlineto
          160 91 -88 -142 hvcurveto
          endchar
        </CharString>
        <CharString name="blinebelow">
          -81 callgsubr
          117 callsubr
          -558 -903 -76 callsubr
        </CharString>
        <CharString name="braceleft">
          855 624 1052 rmoveto
          123 vlineto
          142 4 121 174 vhcurveto
          142 -50 vlineto
          -372 -162 -132 -262 hvcurveto
          -270 vlineto
          -154 -62 -42 -123 vhcurveto
          -141 vlineto
          123 62 -42 -154 hvcurveto
          -269 vlineto
          -262 162 -132 372 vhcurveto
          50 142 hlineto
          -174 -4 121 142 hvcurveto
          122 vlineto
          250 -141 112 -223 40 vhcurveto
          223 41 141 112 250 vvcurveto
          endchar
        </CharString>
        <CharString name="braceright">
          855 231 1052 rmoveto
          -250 141 -112 223 -41 vhcurveto
          -223 -40 -141 -112 -250 vvcurveto
          -122 vlineto
          -142 -4 -121 -174 vhcurveto
          -142 49 vlineto
          373 162 132 262 hvcurveto
          269 vlineto
          154 62 42 123 vhcurveto
          141 vlineto
          -123 -62 42 154 hvcurveto
          270 vlineto
          262 -162 132 -373 vhcurveto
          -49 -142 hlineto
          174 4 -121 -142 hvcurveto
          endchar
        </CharString>
        <CharString name="bracketleft">
          855 190 -280 rmoveto
          628 142 -243 1576 243 142 -628 hlineto
          endchar
        </CharString>
        <CharString name="bracketright">
          855 664 1580 rmoveto
          -627 -142 243 -1576 -243 -142 627 hlineto
          endchar
        </CharString>
        <CharString name="breve">
          1024 512 30 callsubr
          -164 50 callsubr
          146 -154 257 vhcurveto
          endchar
        </CharString>
        <CharString name="breveacutecmb">
          146 callsubr
          385 -358 -22 callsubr
          128 callsubr
        </CharString>
        <CharString name="breveacutecmb.short">
          -66 callgsubr
          395 -293 -7 callsubr
          endchar
        </CharString>
        <CharString name="brevebelowcmb">
          0 -481 vmoveto
          -25 callgsubr
          -4 17 hvcurveto
          -152 -1 hlineto
          -86 -86 -58 -131 -128 -89 59 85 vhcurveto
          1 -152 vlineto
          -4 -18 -2 -25 -25 vvcurveto
          -175 136 -138 239 vhcurveto
          endchar
        </CharString>
        <CharString name="brevecmb">
          0 1188 vmoveto
          257 146 154 194 29 63 callgsubr
          -164 50 callsubr
          146 -154 257 vhcurveto
          endchar
        </CharString>
        <CharString name="brevecmb.short">
          0 1169 vmoveto
          243 138 131 165 24 -2 24 -4 17 hvcurveto
          -161 -1 hlineto
          -82 -87 -55 -127 -91 callgsubr
          -18 -2 -23 -24 vvcurveto
          -165 138 -131 243 vhcurveto
          endchar
        </CharString>
        <CharString name="brevecyrilliccmb">
          0 1 233 callsubr
          185 -125 240 vhcurveto
          endchar
        </CharString>
        <CharString name="brevecyrilliccmb.short">
          0 1543 vmoveto
          222 callsubr
          endchar
        </CharString>
        <CharString name="brevegravecmb">
          -60 callgsubr
          385 -691 -22 callsubr
          128 callsubr
        </CharString>
        <CharString name="brevegravecmb.short">
          0 -395 1 callsubr
          395 -576 -7 callsubr
          endchar
        </CharString>
        <CharString name="brevehookabovecmb">
          0 -12 118 callgsubr
          65 14 53 hhcurveto
          91 40 92 callsubr
          165 162 callsubr
          12 -687 -22 callsubr
          128 callsubr
        </CharString>
        <CharString name="brevehookabovecmb.short">
          0 -12 221 callsubr
          endchar
        </CharString>
        <CharString name="brevetildecmb">
          0 153 -95 callgsubr
          -164 hlineto
          -51 -25 -24 -45 -27 -31 9 12 -35 vhcurveto
          -44 15 -74 callgsubr
          -85 -106 -31 callgsubr
          -35 callgsubr
          -153 -383 -22 callsubr
          128 callsubr
        </CharString>
        <CharString name="brevetildecmb.short">
          0 157 1847 rmoveto
          151 87 91 144 hvcurveto
          9 callsubr
          8 10 -36 vhcurveto
          -45 14 rlineto
          16 -53 -56 14 -62 hhcurveto
          -23 callsubr
          26 22 46 28 31 -8 -10 36 vhcurveto
          45 -14 rlineto
          -16 53 56 -14 62 hhcurveto
          -157 -318 -7 callsubr
          endchar
        </CharString>
        <CharString name="brokenbar">
          855 257 789 rmoveto
          341 791 -341 hlineto
          -1860 vmoveto
          341 791 -341 hlineto
          endchar
        </CharString>
        <CharString name="bullet">
          921 460 70 callgsubr
          -186 -151 -152 -186 -185 151 -152 186 hvcurveto
          endchar
        </CharString>
        <CharString name="c">
          1203 668 -26 27 callsubr
        </CharString>
        <CharString name="cacute">
          1203 644 -93 callsubr
          -72 callsubr
          203 -1213 27 callsubr
        </CharString>
        <CharString name="caret">
          648 256 hmoveto
          -335 -367 163 -159 236 259 240 -259 168 159 -332 367 rlineto
          endchar
        </CharString>
        <CharString name="caron">
          1024 748 27 callgsubr
          endchar
        </CharString>
        <CharString name="caroncmb">
          0 236 27 callgsubr
          endchar
        </CharString>
        <CharString name="caroncmb.short">
          0 239 1491 rmoveto
          -218 -144 -219 144 -177 0 217 -333 355 0 218 333 rlineto
          endchar
        </CharString>
        <CharString name="carondotaccentcmb">
          0 1465 vmoveto
          85 callgsubr
          48 callgsubr
          endchar
        </CharString>
        <CharString name="carondotaccentcmb.short">
          0 1816 vmoveto
          86 callgsubr
          403 4 rmoveto
          -403 -88 -403 88 0 -117 358 -156 92 0 357 156 rlineto
          endchar
        </CharString>
        <CharString name="caronslovak">
          1024 479 1185 rmoveto
          215 429 -314 0 -49 -429 rlineto
          endchar
        </CharString>
        <CharString name="caronslovakcmb">
          0 165 1185 -96 callgsubr
          endchar
        </CharString>
        <CharString name="ccaron">
          1203 913 76 callsubr
          -424 -1639 27 callsubr
        </CharString>
        <CharString name="ccedilla">
          1203 603 52 callsubr
          -12 callsubr
          61 56 177 8 154 59 84 92 rlinecurve
          169 callsubr
          -298 207 -189 272 -42 vhcurveto
          -98 -104 rlineto
          12 callsubr
          39 -22 -41 -41 -41 -21 -61 -50 callgsubr
        </CharString>
        <CharString name="ccedillaacute">
          1203 644 -93 callsubr
          -72 callsubr
          138 -1681 rmoveto
          11 callsubr
          -12 callsubr
          61 56 177 8 154 59 84 92 rlinecurve
          169 callsubr
          -298 207 -189 272 -42 vhcurveto
          -98 -104 rlineto
          12 callsubr
          39 -22 -41 -41 -41 -21 -61 -50 callgsubr
        </CharString>
        <CharString name="ccircumflex">
          1203 440 77 callsubr
          408 -1213 27 callsubr
        </CharString>
        <CharString name="cdotaccent">
          1203 676 -18 callsubr
          100 callsubr
          -8 -1210 27 callsubr
        </CharString>
        <CharString name="cedi">
          1382 805 -188 rmoveto
          107 203 hlineto
          160 10 151 40 84 56 8 380 rcurveline
          -136 hlineto
          -51 -222 -90 -71 -126 -6 rrcurveto
          1041 vlineto
          126 -7 89 -72 49 -218 rrcurveto
          135 hlineto
          -8 381 -93 53 -134 40 -164 10 rlinecurve
          201 -107 -198 vlineto
          -435 -9 -288 -276 -436 vvcurveto
          -417 301 -274 422 -9 vhcurveto
          -253 723 rmoveto
          285 89 170 164 43 vhcurveto
          -1019 vlineto
          -162 50 -91 193 278 vvcurveto
          endchar
        </CharString>
        <CharString name="cedi.tnum">
          1376 801 -188 rmoveto
          108 203 hlineto
          157 10 149 39 84 54 8 380 rcurveline
          -136 hlineto
          -50 -220 -89 -70 -123 -6 rrcurveto
          1040 vlineto
          121 -7 88 -71 48 -215 rrcurveto
          135 hlineto
          -8 379 -92 53 -132 38 -160 10 rlinecurve
          202 -108 -199 vlineto
          -429 -9 -286 -277 -434 vvcurveto
          -422 299 -269 416 -9 vhcurveto
          -244 723 rmoveto
          285 85 168 159 44 vhcurveto
          -1018 vlineto
          -157 50 -87 190 281 vvcurveto
          endchar
        </CharString>
        <CharString name="cedilla">
          1024 467 52 callsubr
          -12 callsubr
          60 callgsubr
        </CharString>
        <CharString name="cedillacmb">
          0 -45 52 callsubr
          -12 callsubr
          60 callgsubr
        </CharString>
        <CharString name="cent">
          1256 749 1 callgsubr
          16 15 -1 -2 15 hvcurveto
          -20 -28 -12 -34 -38 vvcurveto
          -103 76 -84 110 103 110 callgsubr
          -107 -171 vlineto
          -318 248 callsubr
          317 -7 vhcurveto
          -171 vlineto
          -126 785 rmoveto
          121 47 91 79 51 vhcurveto
          -556 vlineto
          -77 62 -49 98 133 vvcurveto
          endchar
        </CharString>
        <CharString name="cent.1">
          1185 728 hmoveto
          174 vlineto
          164 13 139 58 80 87 rrcurveto
          141 vlineto
          -40 -52 -94 -20 -80 hhcurveto
          -193 -158 127 246 188 93 118 139 hvcurveto
          4 hlineto
          -26 -33 -15 -43 -46 vvcurveto
          -107 83 -79 114 106 89 78 124 170 -141 109 callgsubr
          -247 -205 -335 vvcurveto
          -328 245 -196 307 -15 vhcurveto
          -172 vlineto
          endchar
        </CharString>
        <CharString name="cent.1.tnum">
          1376 817 hmoveto
          174 vlineto
          164 13 140 58 79 87 rrcurveto
          141 vlineto
          -40 -52 -94 -20 -79 hhcurveto
          -194 -157 127 246 188 93 118 138 hvcurveto
          4 hlineto
          -26 -33 -15 -43 -46 vvcurveto
          -107 84 -79 114 105 90 78 124 170 -142 109 callgsubr
          -246 -205 -335 vvcurveto
          -328 245 -195 306 -16 vhcurveto
          -172 vlineto
          endchar
        </CharString>
        <CharString name="cent.tnum">
          1376 804 1 callgsubr
          15 16 -1 -2 15 hvcurveto
          -20 -28 -12 -34 -38 vvcurveto
          -103 76 -84 109 104 110 callgsubr
          -108 -171 vlineto
          -317 248 callsubr
          316 -7 vhcurveto
          -171 vlineto
          -125 785 rmoveto
          120 47 92 78 51 vhcurveto
          -556 vlineto
          -76 62 -49 98 133 vvcurveto
          endchar
        </CharString>
        <CharString name="checyrillic">
          1556 174 698 rmoveto
          -228 168 -106 208 140 130 39 46 63 vhcurveto
          -201 vlineto
          -75 -26 -15 -136 -16 vhcurveto
          -142 763 142 vlineto
          -120 14 -23 17 75 vvcurveto
          556 vlineto
          75 23 17 120 14 vhcurveto
          142 -687 -142 vlineto
          73 -11 13 -16 -73 vvcurveto
          -210 vlineto
          -14 -22 -47 -9 -47 hhcurveto
          -92 -50 44 109 hvcurveto
          80 vlineto
          73 13 18 73 9 vhcurveto
          142 -672 -142 vlineto
          113 -13 22 -18 -75 vvcurveto
          endchar
        </CharString>
        <CharString name="chigreek">
          1308 423 -460 rmoveto
          79 582 106 -228 rlineto
          -287 133 105 -92 183 hhcurveto
          108 105 45 65 58 hvcurveto
          135 vlineto
          -5 -12 -25 -6 -21 hhcurveto
          -74 -47 40 252 -118 hvcurveto
          -126 270 116 233 156 271 166 237 rlinecurve
          -432 hlineto
          -87 -569 -100 216 rlineto
          282 -130 -107 90 -180 hhcurveto
          -107 -105 -45 -66 -59 hvcurveto
          -134 vlineto
          5 12 26 5 20 hhcurveto
          75 47 -38 -253 118 hvcurveto
          117 -253 -134 -276 -159 -277 -139 -199 rlinecurve
          endchar
        </CharString>
</ttFont>
